<svg width="24" height="24" viewBox="0 0 24 24" fill="none" xmlns="http://www.w3.org/2000/svg">
<path d="M20.2636 22.8567H4.34052C3.36341 22.8567 2.57129 22.0646 2.57129 21.0874V20.2028C2.57129 19.2257 3.36341 18.4336 4.34052 18.4336H20.2636C21.2407 18.4336 22.0328 19.2257 22.0328 20.2028V21.0874C22.0328 22.0646 21.2407 22.8567 20.2636 22.8567Z" stroke="#FF4040" stroke-width="1.5" stroke-linecap="round" stroke-linejoin="round"/>
<path d="M5.22461 18.1191V15.0105C5.22461 11.102 8.39305 7.93359 12.3015 7.93359C16.21 7.93359 19.3785 11.102 19.3785 15.0105L19.4995 18.1191" stroke="#FF4040" stroke-width="1.5" stroke-linecap="round" stroke-linejoin="round"/>
<path d="M12.3018 0.856934V4.39539" stroke="#FF4040" stroke-width="1.5" stroke-linecap="round" stroke-linejoin="round"/>
<path d="M2.57129 3.51074L5.07335 6.0128" stroke="#FF4040" stroke-width="1.5" stroke-linecap="round" stroke-linejoin="round"/>
<path d="M22.0323 3.51074L19.5303 6.0128" stroke="#FF4040" stroke-width="1.5" stroke-linecap="round" stroke-linejoin="round"/>
<path d="M12.3018 18.2829V15.0107" stroke="#FF4040" stroke-width="1.5" stroke-linecap="round" stroke-linejoin="round"/>
</svg>
