<svg width="43" height="43" viewBox="0 0 43 43" fill="none" xmlns="http://www.w3.org/2000/svg">
<g clip-path="url(#clip0_754_29400)">
<path d="M41.2084 34.0417C41.2084 34.992 40.8309 35.9035 40.1589 36.5755C39.4869 37.2475 38.5754 37.625 37.6251 37.625H5.37508C4.42472 37.625 3.51329 37.2475 2.84128 36.5755C2.16928 35.9035 1.79175 34.992 1.79175 34.0417V14.3333C1.79175 13.383 2.16928 12.4715 2.84128 11.7995C3.51329 11.1275 4.42472 10.75 5.37508 10.75H12.5417L16.1251 5.375H26.8751L30.4584 10.75H37.6251C38.5754 10.75 39.4869 11.1275 40.1589 11.7995C40.8309 12.4715 41.2084 13.383 41.2084 14.3333V34.0417Z" stroke="#555555" stroke-width="3.6" stroke-linecap="round" stroke-linejoin="round"/>
<path d="M21.5002 30.4583C25.4582 30.4583 28.6668 27.2497 28.6668 23.2917C28.6668 19.3336 25.4582 16.125 21.5002 16.125C17.5421 16.125 14.3335 19.3336 14.3335 23.2917C14.3335 27.2497 17.5421 30.4583 21.5002 30.4583Z" stroke="#555555" stroke-width="3.6" stroke-linecap="round" stroke-linejoin="round"/>
</g>
<defs>
<clipPath id="clip0_754_29400">
<rect width="43" height="43" fill="white"/>
</clipPath>
</defs>
</svg>
