<svg width="20" height="21" viewBox="0 0 20 21" fill="none" xmlns="http://www.w3.org/2000/svg">
<g clip-path="url(#clip0_1137_15593)">
<path d="M19.1673 16.3333C19.1673 16.7754 18.9917 17.1993 18.6792 17.5118C18.3666 17.8244 17.9427 18 17.5007 18H2.50065C2.05862 18 1.6347 17.8244 1.32214 17.5118C1.00958 17.1993 0.833984 16.7754 0.833984 16.3333V7.16667C0.833984 6.72464 1.00958 6.30072 1.32214 5.98816C1.6347 5.67559 2.05862 5.5 2.50065 5.5H5.83398L7.50065 3H12.5007L14.1673 5.5H17.5007C17.9427 5.5 18.3666 5.67559 18.6792 5.98816C18.9917 6.30072 19.1673 6.72464 19.1673 7.16667V16.3333Z" stroke="#999999" stroke-width="1.95" stroke-linecap="round" stroke-linejoin="round"/>
<path d="M9.99984 14.6667C11.8408 14.6667 13.3332 13.1743 13.3332 11.3333C13.3332 9.49238 11.8408 8 9.99984 8C8.15889 8 6.6665 9.49238 6.6665 11.3333C6.6665 13.1743 8.15889 14.6667 9.99984 14.6667Z" stroke="#999999" stroke-width="1.95" stroke-linecap="round" stroke-linejoin="round"/>
</g>
<defs>
<clipPath id="clip0_1137_15593">
<rect width="20" height="20" fill="white" transform="translate(0 0.5)"/>
</clipPath>
</defs>
</svg>
