<svg width="20" height="20" viewBox="0 0 20 20" fill="none" xmlns="http://www.w3.org/2000/svg">
<path d="M18.6426 8.99501C18.8726 9.27063 19 9.62872 19 10C19 10.3713 18.8726 10.7294 18.6426 11.005C17.186 12.7 13.8704 16 10 16C6.12957 16 2.81403 12.7 1.35741 11.005C1.12735 10.7294 1 10.3713 1 10C1 9.62872 1.12735 9.27063 1.35741 8.99501C2.81403 7.3 6.12957 4 10 4C13.8704 4 17.186 7.3 18.6426 8.99501Z" stroke="#111111" stroke-width="1.5" stroke-linecap="round" stroke-linejoin="round"/>
<path d="M9.99912 12.6673C11.5314 12.6673 12.7736 11.4734 12.7736 10.0006C12.7736 8.52788 11.5314 7.33398 9.99912 7.33398C8.4668 7.33398 7.22461 8.52788 7.22461 10.0006C7.22461 11.4734 8.4668 12.6673 9.99912 12.6673Z" stroke="#111111" stroke-width="1.5" stroke-linecap="round" stroke-linejoin="round"/>
</svg>
