<svg width="18" height="18" viewBox="0 0 18 18" fill="none" xmlns="http://www.w3.org/2000/svg">
<path d="M15.6301 3.45692C15.247 3.07367 14.7922 2.76965 14.2916 2.56223C13.791 2.35481 13.2545 2.24805 12.7126 2.24805C12.1707 2.24805 11.6342 2.35481 11.1336 2.56223C10.633 2.76965 10.1782 3.07367 9.79509 3.45692L9.00009 4.25192L8.20509 3.45692C7.43132 2.68315 6.38186 2.24845 5.28759 2.24845C4.19331 2.24845 3.14386 2.68315 2.37009 3.45692C1.59632 4.23069 1.16162 5.28014 1.16162 6.37442C1.16162 7.46869 1.59632 8.51815 2.37009 9.29192L3.16509 10.0869L9.00009 15.9219L14.8351 10.0869L15.6301 9.29192C16.0133 8.90885 16.3174 8.45403 16.5248 7.95343C16.7322 7.45284 16.839 6.91628 16.839 6.37442C16.839 5.83255 16.7322 5.29599 16.5248 4.7954C16.3174 4.29481 16.0133 3.83998 15.6301 3.45692Z" stroke="#8A8A8A" stroke-width="1.5" stroke-linecap="round" stroke-linejoin="round"/>
</svg>
