<svg width="24" height="24" viewBox="0 0 24 24" fill="none" xmlns="http://www.w3.org/2000/svg">
<path d="M6.83936 3.24658C8.28249 3.35115 9.94815 4.13879 11.6323 6.04834L12.0073 6.47412L12.3823 6.04834C14.0665 4.13897 15.7296 3.35358 17.1694 3.25146C18.6092 3.14948 19.902 3.72424 20.8667 4.68604C22.8203 6.63378 23.3346 10.0375 21.0376 12.3345L12.0063 20.5142L2.97607 12.3345C0.661139 10.0195 1.17845 6.61636 3.13428 4.67432C4.10074 3.71474 5.39631 3.14203 6.83936 3.24658Z" fill="#FF4040" stroke="#A20000"/>
<path d="M12.007 21.1889L2.62231 12.6882C-2.47803 7.58789 5.01948 -2.20478 12.007 5.71776C18.9945 -2.20478 26.458 7.6219 21.3916 12.6882L12.007 21.1889Z" fill="#FF4040" stroke="#A20000" stroke-linecap="round" stroke-linejoin="round"/>
</svg>
