<svg width="24" height="24" viewBox="0 0 24 24" fill="none" xmlns="http://www.w3.org/2000/svg">
<g clip-path="url(#clip0_1738_20679)">
<path d="M1.79324 9.9668H5.82401V20.6985H1.79324C1.56771 20.6985 1.35141 20.609 1.19194 20.4494C1.03246 20.29 0.942871 20.0736 0.942871 19.8482V10.8172C0.942871 10.5916 1.03246 10.3753 1.19194 10.2159C1.35141 10.0564 1.56771 9.9668 1.79324 9.9668Z" stroke="#EC8899" stroke-width="2.25" stroke-linecap="round" stroke-linejoin="round"/>
<path d="M5.82422 9.96642L10.1441 3.06139C10.3115 2.78848 10.5468 2.56356 10.8269 2.40858C11.1071 2.25359 11.4226 2.17382 11.7428 2.17701C11.995 2.16791 12.2464 2.20944 12.4822 2.29917C12.718 2.3889 12.9335 2.52498 13.1158 2.69939C13.2981 2.8738 13.4437 3.08298 13.5438 3.31459C13.6439 3.54619 13.6965 3.79552 13.6987 4.04783V8.99699H21.1649C21.4408 9.00593 21.7116 9.07317 21.9597 9.1943C22.2077 9.31542 22.4273 9.48765 22.6041 9.69971C22.7808 9.91176 22.9106 10.1588 22.985 10.4246C23.0594 10.6904 23.0767 10.969 23.0357 11.242L21.6751 20.0178C21.6172 20.4868 21.3897 20.9185 21.0359 21.2317C20.682 21.5449 20.2259 21.718 19.7532 21.7186H8.59642C8.06532 21.7206 7.54111 21.5984 7.06576 21.3613L5.84122 20.7491" stroke="#EC8899" stroke-width="2.25" stroke-linecap="round" stroke-linejoin="round"/>
<path d="M5.82422 9.9668V20.6985" stroke="#EC8899" stroke-width="2.25" stroke-linecap="round" stroke-linejoin="round"/>
</g>
<defs>
<clipPath id="clip0_1738_20679">
<rect width="24" height="24" fill="white"/>
</clipPath>
</defs>
</svg>
