<svg width="24" height="24" viewBox="0 0 24 24" fill="none" xmlns="http://www.w3.org/2000/svg">
<g clip-path="url(#clip0_1738_20697)">
<path d="M1.79324 9.9668H5.82401V20.6985H1.79324C1.56771 20.6985 1.35141 20.609 1.19194 20.4494C1.03246 20.29 0.942871 20.0736 0.942871 19.8482V10.8172C0.942871 10.5916 1.03246 10.3753 1.19194 10.2159C1.35141 10.0564 1.56771 9.9668 1.79324 9.9668Z" stroke="#8A8A8A" stroke-width="2.25" stroke-linecap="round" stroke-linejoin="round"/>
<path d="M5.82397 9.96642L10.1439 3.06139C10.3113 2.78848 10.5465 2.56356 10.8267 2.40858C11.1069 2.25359 11.4224 2.17382 11.7426 2.17701C11.9947 2.16791 12.2461 2.20944 12.482 2.29917C12.7178 2.3889 12.9332 2.52498 13.1156 2.69939C13.2979 2.8738 13.4434 3.08298 13.5435 3.31459C13.6436 3.54619 13.6963 3.79552 13.6984 4.04783V8.99699H21.1647C21.4405 9.00593 21.7114 9.07317 21.9594 9.1943C22.2075 9.31542 22.4271 9.48765 22.6038 9.69971C22.7806 9.91176 22.9104 10.1588 22.9848 10.4246C23.0592 10.6904 23.0765 10.969 23.0355 11.242L21.6749 20.0178C21.6169 20.4868 21.3894 20.9185 21.0356 21.2317C20.6818 21.5449 20.2256 21.718 19.753 21.7186H8.59618C8.06508 21.7206 7.54087 21.5984 7.06551 21.3613L5.84098 20.7491" stroke="#8A8A8A" stroke-width="2.25" stroke-linecap="round" stroke-linejoin="round"/>
<path d="M5.82397 9.9668V20.6985" stroke="#8A8A8A" stroke-width="2.25" stroke-linecap="round" stroke-linejoin="round"/>
</g>
<defs>
<clipPath id="clip0_1738_20697">
<rect width="24" height="24" fill="white"/>
</clipPath>
</defs>
</svg>
