<svg width="24" height="24" viewBox="0 0 24 24" fill="none" xmlns="http://www.w3.org/2000/svg">
<g clip-path="url(#clip0_2105_22032)">
<path d="M15.857 8.57129C17.7893 8.57129 19.6424 9.3389 21.0087 10.7052C22.375 12.0716 23.1426 13.9247 23.1426 15.857C23.1473 17.2912 22.7233 18.694 21.9255 19.8856L23.1426 23.1427L19.0455 22.4056C18.0601 22.8861 16.9791 23.1381 15.8829 23.1427C14.7866 23.1473 13.7035 22.9044 12.7141 22.4323C11.7248 21.9602 10.8547 21.2707 10.1688 20.4156C9.48286 19.5605 8.99875 18.5616 8.75254 17.4933C8.50633 16.4251 8.50435 15.3151 8.74676 14.2459C8.98918 13.1768 9.46973 12.1762 10.1526 11.3186C10.8355 10.461 11.7031 9.7686 12.6907 9.29292C13.6784 8.81724 14.7607 8.57057 15.857 8.57129Z" stroke="#FF4040" stroke-width="1.5" stroke-linecap="round" stroke-linejoin="round"/>
<path d="M16.9032 4.303C15.7487 2.83397 14.1649 1.76148 12.3723 1.23484C10.5797 0.708202 8.6675 0.753627 6.90193 1.36479C5.13635 1.97596 3.60529 3.12244 2.52187 4.64462C1.43848 6.16678 0.85667 7.98892 0.857462 9.85728C0.852149 11.6333 1.37746 13.3704 2.36603 14.8459L0.857462 18.8572L4.49174 18.2058" stroke="#FF4040" stroke-width="1.5" stroke-linecap="round" stroke-linejoin="round"/>
</g>
<defs>
<clipPath id="clip0_2105_22032">
<rect width="24" height="24" fill="white"/>
</clipPath>
</defs>
</svg>
