<svg width="24" height="24" viewBox="0 0 24 24" fill="none" xmlns="http://www.w3.org/2000/svg">
<g clip-path="url(#clip0_2105_22036)">
<path d="M13.5257 1.79983C13.3818 1.51902 13.1633 1.28337 12.8941 1.11882C12.6249 0.954259 12.3155 0.867188 12 0.867188C11.6845 0.867188 11.3751 0.954259 11.1059 1.11882C10.8367 1.28337 10.6181 1.51902 10.4743 1.79983L1.04569 20.657C0.914186 20.9179 0.851577 21.2081 0.863807 21.5002C0.876037 21.7922 0.962701 22.0761 1.11557 22.3251C1.26843 22.5742 1.48243 22.7801 1.73724 22.9231C1.99203 23.0662 2.27918 23.1418 2.57141 23.1427H21.4285C21.7208 23.1418 22.0079 23.0662 22.2627 22.9231C22.5176 22.7801 22.7315 22.5742 22.8844 22.3251C23.0372 22.0761 23.1239 21.7922 23.1361 21.5002C23.1484 21.2081 23.0857 20.9179 22.9542 20.657L13.5257 1.79983Z" stroke="#FF4040" stroke-width="1.5" stroke-linecap="round" stroke-linejoin="round"/>
<path d="M12 8.57129V14.1427" stroke="#FF4040" stroke-width="1.5" stroke-linecap="round" stroke-linejoin="round"/>
<path d="M11.9999 18.8571C11.7632 18.8571 11.5713 18.6653 11.5713 18.4286C11.5713 18.1918 11.7632 18 11.9999 18" stroke="#FF4040" stroke-width="1.5" stroke-linecap="round" stroke-linejoin="round"/>
<path d="M12 18.8571C12.2367 18.8571 12.4286 18.6653 12.4286 18.4286C12.4286 18.1918 12.2367 18 12 18" stroke="#FF4040" stroke-width="1.5" stroke-linecap="round" stroke-linejoin="round"/>
</g>
<defs>
<clipPath id="clip0_2105_22036">
<rect width="24" height="24" fill="white"/>
</clipPath>
</defs>
</svg>
