<svg width="34" height="34" viewBox="0 0 34 34" fill="none" xmlns="http://www.w3.org/2000/svg">
<g clip-path="url(#clip0_1389_27589)">
<rect width="34" height="34" rx="17" fill="#DADADA"/>
<path d="M31 33C30.0827 30.2633 28.2812 27.8762 25.8552 26.1826C23.4288 24.489 20.5032 23.5764 17.5 23.5764C14.4968 23.5764 11.5711 24.489 9.14487 26.1826C6.71863 27.8762 4.91708 30.2633 4 33L17.5 36.5L31 33Z" fill="#B6B6B6"/>
<path d="M16.6456 20.6322C20.8681 20.6322 24.2912 17.3567 24.2912 13.3161C24.2912 9.27553 20.8681 6 16.6456 6C12.423 6 9 9.27553 9 13.3161C9 17.3567 12.423 20.6322 16.6456 20.6322Z" fill="#B6B6B6"/>
</g>
<defs>
<clipPath id="clip0_1389_27589">
<rect width="34" height="34" rx="17" fill="white"/>
</clipPath>
</defs>
</svg>
