<svg width="32" height="32" viewBox="0 0 32 32" fill="none" xmlns="http://www.w3.org/2000/svg">
<g clip-path="url(#clip0_1752_21670)">
<path d="M30.8569 15.8631C30.8592 15.5458 30.7952 15.2316 30.6692 14.9404C30.5433 14.6492 30.3581 14.3874 30.1254 14.1716L15.9998 1.14307L1.87406 14.1716C1.64143 14.3874 1.45626 14.6492 1.33033 14.9404C1.20441 15.2316 1.14048 15.5458 1.14263 15.8631V28.5716C1.14263 29.1778 1.38345 29.7593 1.8121 30.1879C2.24075 30.6164 2.82214 30.8574 3.42834 30.8574H28.5712C29.1773 30.8574 29.7588 30.6164 30.1874 30.1879C30.6162 29.7593 30.8569 29.1778 30.8569 28.5716V15.8631Z" stroke="#111111" stroke-width="2" stroke-linecap="round" stroke-linejoin="round"/>
<path d="M16 30.8572V21.7144" stroke="#111111" stroke-width="2" stroke-linecap="round" stroke-linejoin="round"/>
</g>
<defs>
<clipPath id="clip0_1752_21670">
<rect width="32" height="32" fill="white"/>
</clipPath>
</defs>
</svg>
