<svg width="34" height="34" viewBox="0 0 34 34" fill="none" xmlns="http://www.w3.org/2000/svg">
<path d="M31.7143 16.72C31.7166 16.4027 31.6526 16.0885 31.5266 15.7973C31.4007 15.5061 31.2155 15.2443 30.9829 15.0286L16.8572 2L2.73148 15.0286C2.49885 15.2443 2.31368 15.5061 2.18776 15.7973C2.06183 16.0885 1.99791 16.4027 2.00005 16.72V29.4286C2.00005 30.0347 2.24087 30.6162 2.66952 31.0448C3.09818 31.4734 3.67957 31.7143 4.28576 31.7143H29.4286C30.0347 31.7143 30.6162 31.4734 31.0448 31.0448C31.4736 30.6162 31.7143 30.0347 31.7143 29.4286V16.72Z" stroke="#111111" stroke-width="2" stroke-linecap="round" stroke-linejoin="round"/>
<path d="M16.8574 31.7141V22.5713" stroke="#111111" stroke-width="2" stroke-linecap="round" stroke-linejoin="round"/>
</svg>
