<svg width="151" height="46" viewBox="0 0 151 46" fill="none" xmlns="http://www.w3.org/2000/svg">
<rect x="23" y="12.5" width="7" height="6" rx="3" fill="#64D8C3"/>
<rect x="7" y="12.5" width="7" height="6" rx="3" fill="#64D8C3"/>
<path d="M14.3724 12.5697C14.6363 13.8341 14.7399 14.0585 13.2736 16.2404C11.8073 18.4224 9.44847 18.4187 8.00747 17.3974C6.56647 16.3762 6.54296 14.3584 7.16901 13.3491C7.95158 12.0874 9.74349 11.6095 11.7357 12.5573C13.3295 13.3154 14.5236 15.5246 14.6283 18.7926C14.733 22.0606 13.0153 25.0277 9.80714 24.8294C6.59896 24.631 5.65774 21.833 6.41232 20.4611" stroke="#111111" stroke-width="2" stroke-linecap="round"/>
<path d="M30.7977 12.5707C31.0604 13.8354 31.1638 14.0598 29.6954 16.2404C28.227 18.4209 25.8682 18.4149 24.4282 17.3923C22.9881 16.3697 22.9666 14.3518 23.5936 13.3431C24.3774 12.0823 26.1697 11.6061 28.1611 12.5557C29.7541 13.3154 30.9461 15.5257 31.0477 18.7938C31.1492 22.062 29.4287 25.0274 26.2207 24.826C23.0127 24.6245 22.0742 21.8256 22.8301 20.4544" stroke="#111111" stroke-width="2" stroke-linecap="round"/>
<path d="M15.9063 26.459C16.7365 27.5525 19.3595 28.1567 21.2174 25.9348" stroke="#111111" stroke-width="2" stroke-linecap="round"/>
<path d="M32.4364 28.9393C24.2121 40.25 2.06539 36.9354 2 18.999C2.07771 -1.49242 30.9727 -2.89545 35 14.7846" stroke="#111111" stroke-width="3" stroke-miterlimit="10" stroke-linecap="round"/>
<path d="M41.448 30.332V27.58H30.28V22.588H48.296C48.5307 21.628 48.7013 20.7533 48.808 19.964C48.936 19.1533 49.0213 18.396 49.064 17.692H33.736V12.7H55.304L55.272 14.972C55.272 15.4627 55.2507 16.0067 55.208 16.604C55.1867 17.18 55.1333 17.7987 55.048 18.46C54.984 19.1213 54.888 19.804 54.76 20.508C54.6533 21.212 54.504 21.9053 54.312 22.588H58.12V27.58H47.528V30.332H41.448ZM31.24 37.02C34.5893 36.5293 37.128 35.804 38.856 34.844C40.6053 33.8627 41.48 32.7213 41.48 31.42V31.068H47.528V32.156C47.528 32.9453 47.6347 33.6173 47.848 34.172C48.0827 34.7053 48.3813 35.1427 48.744 35.484C49.1067 35.804 49.512 36.0493 49.96 36.22C50.4293 36.3693 50.8987 36.4653 51.368 36.508C51.9653 36.5507 52.616 36.5613 53.32 36.54C54.0453 36.4973 54.6853 36.2947 55.24 35.932L56.52 36.7C56.6267 37.5747 56.5093 38.364 56.168 39.068C55.848 39.7933 55.3573 40.3907 54.696 40.86C54.0347 41.3507 53.2453 41.7027 52.328 41.916C51.432 42.1293 50.472 42.1507 49.448 41.98C48.04 41.7667 46.92 41.34 46.088 40.7C45.2773 40.0813 44.7333 39.164 44.456 37.948C43.6667 38.6093 42.7813 39.1853 41.8 39.676C40.84 40.188 39.8587 40.6147 38.856 40.956C37.8533 41.3187 36.8613 41.6067 35.88 41.82C34.8987 42.0333 34.0133 42.1827 33.224 42.268L31.24 37.02ZM71.8543 30.332V27.58H60.6863V22.588H78.7023C78.9369 21.628 79.1076 20.7533 79.2143 19.964C79.3423 19.1533 79.4276 18.396 79.4703 17.692H64.1423V12.7H85.7103L85.6783 14.972C85.6783 15.4627 85.6569 16.0067 85.6143 16.604C85.5929 17.18 85.5396 17.7987 85.4543 18.46C85.3903 19.1213 85.2943 19.804 85.1663 20.508C85.0596 21.212 84.9103 21.9053 84.7183 22.588H88.5263V27.58H77.9343V30.332H71.8543ZM61.6463 37.02C64.9956 36.5293 67.5343 35.804 69.2623 34.844C71.0116 33.8627 71.8863 32.7213 71.8863 31.42V31.068H77.9343V32.156C77.9343 32.9453 78.0409 33.6173 78.2543 34.172C78.4889 34.7053 78.7876 35.1427 79.1503 35.484C79.5129 35.804 79.9183 36.0493 80.3663 36.22C80.8356 36.3693 81.3049 36.4653 81.7743 36.508C82.3716 36.5507 83.0223 36.5613 83.7263 36.54C84.4516 36.4973 85.0916 36.2947 85.6463 35.932L86.9263 36.7C87.0329 37.5747 86.9156 38.364 86.5743 39.068C86.2543 39.7933 85.7636 40.3907 85.1023 40.86C84.4409 41.3507 83.6516 41.7027 82.7343 41.916C81.8383 42.1293 80.8783 42.1507 79.8543 41.98C78.4463 41.7667 77.3263 41.34 76.4943 40.7C75.6836 40.0813 75.1396 39.164 74.8623 37.948C74.0729 38.6093 73.1876 39.1853 72.2063 39.676C71.2463 40.188 70.2649 40.6147 69.2623 40.956C68.2596 41.3187 67.2676 41.6067 66.2863 41.82C65.3049 42.0333 64.4196 42.1827 63.6302 42.268L61.6463 37.02ZM120.021 27.676H116.597V41.116H110.517V12.316H116.597V22.076H120.021V27.676ZM89.7485 19.932V14.62C90.5378 14.6627 91.3058 14.6627 92.0525 14.62C92.7992 14.5773 93.5352 14.524 94.2605 14.46C95.1778 14.3747 96.0632 14.268 96.9165 14.14C97.7912 13.9907 98.6338 13.8627 99.4445 13.756C100.255 13.6493 101.023 13.564 101.749 13.5C102.474 13.436 103.146 13.4253 103.765 13.468C104.682 13.532 105.439 13.7453 106.037 14.108C106.634 14.4493 107.103 14.908 107.444 15.484C107.807 16.06 108.063 16.7427 108.213 17.532C108.362 18.3213 108.458 19.1853 108.501 20.124C108.543 20.956 108.543 21.8733 108.501 22.876C108.479 23.8787 108.426 24.9027 108.341 25.948C108.277 26.9933 108.191 28.0387 108.085 29.084C107.978 30.108 107.871 31.0787 107.765 31.996C107.658 32.9133 107.562 33.7453 107.477 34.492C107.391 35.2173 107.327 35.804 107.285 36.252H91.3485V19.932H89.7485ZM97.3325 30.972H101.973C102.037 30.6947 102.111 30.1933 102.197 29.468C102.303 28.7427 102.389 27.9213 102.453 27.004C102.517 26.0653 102.559 25.1053 102.581 24.124C102.623 23.1213 102.613 22.2253 102.549 21.436C102.485 20.668 102.282 20.0707 101.941 19.644C101.599 19.196 101.034 18.9507 100.245 18.908C99.7965 18.8653 99.3485 18.8973 98.9005 19.004C98.4738 19.0893 97.9512 19.196 97.3325 19.324V30.972ZM142.843 31.004V12.316H148.347V31.004H142.843ZM120.987 26.844C121.883 26.46 122.747 26.044 123.579 25.596C124.432 25.1267 125.232 24.6253 125.979 24.092C125.189 24.1347 124.432 24.156 123.707 24.156C122.981 24.156 122.341 24.1453 121.787 24.124V19.996C122.256 20.0173 122.811 20.028 123.451 20.028C124.112 20.028 124.795 20.028 125.499 20.028C126.203 20.028 126.917 20.028 127.643 20.028C128.368 20.0067 129.061 19.9747 129.723 19.932C129.872 19.5907 129.979 19.196 130.043 18.748H122.491V14.364H135.963L135.867 15.74C135.781 17.1907 135.504 18.6093 135.035 19.996H136.699V12.636H142.139V29.212H136.699V24.956H132.379C131.312 26.3427 130.053 27.58 128.603 28.668C127.152 29.7347 125.531 30.6413 123.739 31.388L120.987 26.844ZM124.155 37.02C126.053 36.7 127.664 36.316 128.987 35.868C130.331 35.3987 131.419 34.8973 132.251 34.364C133.083 33.8093 133.68 33.2227 134.043 32.604C134.427 31.964 134.619 31.324 134.619 30.684V30.332H140.667V31.132C140.667 32.092 140.784 32.892 141.019 33.532C141.275 34.1507 141.595 34.6627 141.979 35.068C142.363 35.452 142.789 35.74 143.259 35.932C143.749 36.1027 144.229 36.2093 144.699 36.252C145.296 36.2947 145.947 36.3053 146.651 36.284C147.376 36.2413 148.016 36.0387 148.571 35.676L149.851 36.444C149.957 37.3187 149.84 38.108 149.499 38.812C149.179 39.5373 148.688 40.1347 148.027 40.604C147.365 41.0947 146.576 41.4467 145.659 41.66C144.763 41.8733 143.803 41.8947 142.779 41.724C140.048 41.3187 138.352 39.8787 137.691 37.404C136.88 38.1507 135.973 38.8013 134.971 39.356C133.989 39.932 132.976 40.412 131.931 40.796C130.885 41.2013 129.861 41.5213 128.859 41.756C127.856 42.012 126.949 42.1827 126.139 42.268L124.155 37.02Z" fill="#111111"/>
</svg>
