<svg width="168" height="81" viewBox="0 0 168 81" fill="none" xmlns="http://www.w3.org/2000/svg">
<path d="M77.09 0.52933V35.5093H84.79V78.2993C81.7833 79.106 78.5933 79.6927 75.22 80.0593C71.92 80.4993 68.5467 80.7193 65.1 80.7193C61.7267 80.7193 58.3533 80.4993 54.98 80.0593C51.68 79.6927 48.5633 79.106 45.63 78.2993C42.6233 77.4927 39.4333 76.8693 36.06 76.4293C32.76 76.0627 29.3867 75.8793 25.94 75.8793C22.5667 75.8793 19.1933 76.0627 15.82 76.4293C12.4467 76.8693 9.29333 77.4927 6.36 78.2993V6.02933H0.86V0.52933H77.09ZM45.63 72.7993C47.6833 73.386 49.7733 73.826 51.9 74.1193C54.1 74.486 56.3733 74.7427 58.72 74.8893V41.0093H32.43V70.5993C37.05 70.8927 41.45 71.626 45.63 72.7993ZM32.43 35.5093H51.02V6.02933H32.43V35.5093ZM167.554 0.52933V6.02933H126.854V36.0593H163.154V41.5593H126.854V71.0393C128.1 71.2593 129.31 71.516 130.484 71.8093C131.73 72.1027 133.014 72.4327 134.334 72.7993C140.274 74.486 145.81 75.3293 150.944 75.3293C156.15 75.3293 161.724 74.486 167.664 72.7993V78.2993C161.724 79.986 156.15 80.8293 150.944 80.8293C145.81 80.8293 140.274 79.986 134.334 78.2993C128.394 76.6127 122.784 75.7693 117.504 75.7693C112.297 75.7693 106.724 76.6127 100.784 78.2993V6.02933H95.2838V0.52933H167.554Z" fill="black"/>
</svg>
