<svg width="88" height="88" viewBox="0 0 88 88" fill="none" xmlns="http://www.w3.org/2000/svg">
<path d="M34.6601 30.7968C35.2052 33.4081 35.419 33.8715 32.3908 38.3777C29.3626 42.8839 24.4912 42.8762 21.5152 40.7672C18.5393 38.6582 18.4907 34.4908 19.7836 32.4064C21.3998 29.8009 25.1005 28.814 29.2149 30.7712C32.5064 32.337 34.9724 36.8993 35.1887 43.6485C35.4049 50.3976 31.8575 56.5252 25.2319 56.1156C18.6064 55.706 16.6626 49.9276 18.2209 47.0943" stroke="#111111" stroke-width="6" stroke-linecap="round"/>
<path d="M68.5803 30.802C69.1228 33.4138 69.3363 33.8774 66.3037 38.3807C63.2712 42.884 58.3998 42.8716 55.4258 40.7597C52.4519 38.6478 52.4073 34.4805 53.7023 32.3973C55.3209 29.7934 59.0226 28.81 63.1351 30.7711C66.4251 32.3401 68.8867 36.9048 69.0965 43.6542C69.3062 50.4035 65.7529 56.5277 59.1277 56.1117C52.5026 55.6957 50.5643 49.9154 52.1254 47.0836" stroke="#111111" stroke-width="6" stroke-linecap="round"/>
<path d="M38.3281 62.1748C40.0783 64.4802 45.608 65.7538 49.5248 61.0697" stroke="#111111" stroke-width="6" stroke-linecap="round"/>
<path d="M77.7853 68.0953C57.8476 95.5152 4.15853 87.4799 4 43.9975C4.18839 -5.67859 74.2368 -9.07987 84 33.7809" stroke="#111111" stroke-width="6.4" stroke-miterlimit="10" stroke-linecap="round"/>
</svg>
