<svg width="229" height="45" viewBox="0 0 229 45" fill="none" xmlns="http://www.w3.org/2000/svg">
<path d="M2.688 39.004V18.524C2.32533 18.5667 1.96267 18.6093 1.6 18.652C1.25867 18.6733 0.938667 18.7053 0.64 18.748V13.596C1.42933 13.5106 2.336 13.4146 3.36 13.308C4.384 13.18 5.42933 13.0733 6.496 12.988C7.584 12.8813 8.64 12.796 9.664 12.732C10.7093 12.668 11.6267 12.636 12.416 12.636C13.7813 12.636 14.9973 12.8066 16.064 13.148C17.1307 13.4893 18.0267 13.98 18.752 14.62C19.4987 15.2387 20.0533 15.996 20.416 16.892C20.8 17.7666 20.992 18.7373 20.992 19.804C20.992 21.02 20.7253 22.0653 20.192 22.94C19.6587 23.7933 18.9333 24.5293 18.016 25.148C19.3387 25.7667 20.32 26.5773 20.96 27.58C21.6 28.5827 21.92 29.7133 21.92 30.972C21.92 32.188 21.6853 33.2973 21.216 34.3C20.768 35.2813 20.1067 36.124 19.232 36.828C18.3787 37.5107 17.344 38.044 16.128 38.428C14.912 38.812 13.536 39.004 12 39.004H2.688ZM8.928 33.724H11.424C12.6827 33.724 13.6853 33.4893 14.432 33.02C15.1787 32.5293 15.552 31.7827 15.552 30.78C15.552 29.948 15.232 29.276 14.592 28.764C13.9733 28.252 13.088 27.996 11.936 27.996C11.4453 27.996 10.944 28.0067 10.432 28.028C9.92 28.028 9.41867 28.028 8.928 28.028V33.724ZM8.928 22.972H10.688C12.0107 22.972 12.992 22.748 13.632 22.3C14.2933 21.8307 14.624 21.18 14.624 20.348C14.624 19.6227 14.336 19.036 13.76 18.588C13.2053 18.14 12.3627 17.916 11.232 17.916C10.592 17.916 9.824 17.948 8.928 18.012V22.972ZM41.7908 33.724V39.004H25.0868V13.212H41.4708V18.492H31.3268V23.388H39.8708V28.54H31.3268V33.724H41.7908ZM67.2878 39.004H61.0798V28.988L52.5038 13.212H59.4478L64.1838 23.228L68.9198 13.212H75.8638L67.2878 28.988V39.004ZM76.3425 26.108C76.3425 24.0813 76.6305 22.236 77.2065 20.572C77.7825 18.908 78.5932 17.4893 79.6385 16.316C80.6838 15.1426 81.9318 14.236 83.3825 13.596C84.8332 12.956 86.4438 12.636 88.2145 12.636C89.9638 12.636 91.5638 12.956 93.0145 13.596C94.4865 14.236 95.7452 15.1426 96.7905 16.316C97.8358 17.4893 98.6465 18.908 99.2225 20.572C99.7985 22.236 100.087 24.0813 100.087 26.108C100.087 28.1347 99.7985 29.98 99.2225 31.644C98.6465 33.308 97.8358 34.7267 96.7905 35.9C95.7452 37.0733 94.4865 37.98 93.0145 38.62C91.5638 39.26 89.9638 39.58 88.2145 39.58C86.4438 39.58 84.8332 39.26 83.3825 38.62C81.9318 37.98 80.6838 37.0733 79.6385 35.9C78.5932 34.7267 77.7825 33.308 77.2065 31.644C76.6305 29.98 76.3425 28.1347 76.3425 26.108ZM82.7105 26.108C82.7105 27.58 82.8705 28.828 83.1905 29.852C83.5105 30.876 83.9265 31.708 84.4385 32.348C84.9505 32.988 85.5372 33.4573 86.1985 33.756C86.8598 34.0333 87.5318 34.172 88.2145 34.172C88.8972 34.172 89.5692 34.0333 90.2305 33.756C90.8918 33.4573 91.4785 32.988 91.9905 32.348C92.5025 31.708 92.9185 30.876 93.2385 29.852C93.5585 28.828 93.7185 27.58 93.7185 26.108C93.7185 24.636 93.5585 23.388 93.2385 22.364C92.9185 21.34 92.5025 20.508 91.9905 19.868C91.4785 19.228 90.8918 18.7693 90.2305 18.492C89.5692 18.1933 88.8972 18.044 88.2145 18.044C87.5318 18.044 86.8598 18.1933 86.1985 18.492C85.5372 18.7693 84.9505 19.228 84.4385 19.868C83.9265 20.508 83.5105 21.34 83.1905 22.364C82.8705 23.388 82.7105 24.636 82.7105 26.108ZM124.607 13.212V29.372C124.607 32.6573 123.7 35.1853 121.887 36.956C120.095 38.7053 117.524 39.58 114.175 39.58C110.826 39.58 108.244 38.7053 106.431 36.956C104.639 35.1853 103.743 32.6573 103.743 29.372V13.212H109.951V29.116C109.951 30.6947 110.303 31.9107 111.007 32.764C111.711 33.596 112.767 34.012 114.175 34.012C115.583 34.012 116.639 33.596 117.343 32.764C118.047 31.9107 118.399 30.6947 118.399 29.116V13.212H124.607ZM135.865 39.004H129.657V18.524C129.273 18.5667 128.91 18.6093 128.569 18.652C128.227 18.6733 127.907 18.7053 127.609 18.748V13.596C128.398 13.5106 129.294 13.4146 130.297 13.308C131.321 13.18 132.366 13.0733 133.433 12.988C134.521 12.8813 135.577 12.796 136.601 12.732C137.625 12.668 138.531 12.636 139.321 12.636C140.942 12.636 142.329 12.8386 143.481 13.244C144.633 13.6493 145.582 14.204 146.329 14.908C147.075 15.612 147.619 16.444 147.961 17.404C148.323 18.364 148.505 19.3986 148.505 20.508C148.505 22.364 148.057 23.932 147.161 25.212C146.286 26.492 145.091 27.5053 143.577 28.252C144.195 29.5747 144.782 30.6733 145.337 31.548C145.891 32.4013 146.521 33.1693 147.225 33.852C147.523 34.1507 147.886 34.332 148.313 34.396C148.739 34.4387 149.102 34.3853 149.401 34.236L150.425 35.58C150.361 36.1987 150.179 36.7427 149.881 37.212C149.603 37.7027 149.262 38.108 148.857 38.428C148.451 38.748 148.003 39.004 147.513 39.196C147.043 39.388 146.574 39.5053 146.105 39.548C145.657 39.5907 145.145 39.5373 144.569 39.388C143.993 39.2387 143.491 38.972 143.065 38.588C142.553 38.1187 142.062 37.5533 141.593 36.892C141.123 36.2307 140.675 35.5053 140.249 34.716C139.822 33.9267 139.417 33.0947 139.033 32.22C138.649 31.3453 138.286 30.4493 137.945 29.532H135.865V39.004ZM135.865 24.444H137.689C139.225 24.444 140.345 24.156 141.049 23.58C141.774 22.9827 142.137 22.108 142.137 20.956C142.137 20.06 141.838 19.3347 141.241 18.78C140.643 18.204 139.641 17.916 138.233 17.916C137.934 17.916 137.582 17.9266 137.177 17.948C136.771 17.9693 136.334 17.9907 135.865 18.012V24.444ZM163.483 20.316C163.547 19.932 163.515 19.5906 163.387 19.292C163.259 18.972 163.057 18.7053 162.779 18.492C162.502 18.2787 162.171 18.1187 161.787 18.012C161.425 17.884 161.041 17.82 160.635 17.82C159.825 17.7986 159.142 17.9586 158.587 18.3C158.033 18.6413 157.766 19.1853 157.787 19.932C157.787 20.3587 157.905 20.7427 158.139 21.084C158.374 21.404 158.662 21.692 159.003 21.948C159.366 22.204 159.75 22.428 160.155 22.62C160.582 22.812 160.977 22.9827 161.339 23.132C161.745 23.3027 162.182 23.4947 162.651 23.708C163.142 23.9 163.611 24.1027 164.059 24.316C164.529 24.508 164.966 24.7107 165.371 24.924C165.798 25.116 166.161 25.308 166.459 25.5C167.291 26.012 167.942 26.6307 168.411 27.356C168.902 28.0813 169.222 28.86 169.371 29.692C169.542 30.5027 169.574 31.324 169.467 32.156C169.382 32.988 169.179 33.7773 168.859 34.524C168.177 36.1667 167.025 37.4467 165.403 38.364C163.803 39.2813 161.915 39.6867 159.739 39.58C158.523 39.516 157.371 39.3133 156.283 38.972C155.217 38.6307 154.257 38.14 153.403 37.5C152.571 36.86 151.867 36.0707 151.291 35.132C150.737 34.172 150.374 33.052 150.203 31.772L156.187 30.556C156.379 31.4947 156.806 32.284 157.467 32.924C158.15 33.5427 158.971 33.9053 159.931 34.012C160.955 34.14 161.755 34.0013 162.331 33.596C162.907 33.1693 163.195 32.6253 163.195 31.964C163.195 31.5587 163.089 31.196 162.875 30.876C162.662 30.5347 162.374 30.236 162.011 29.98C161.67 29.7027 161.265 29.4467 160.795 29.212C160.347 28.9773 159.867 28.7533 159.355 28.54C158.545 28.1987 157.787 27.8787 157.083 27.58C156.379 27.26 155.718 26.9293 155.099 26.588C154.459 26.2467 153.883 25.82 153.371 25.308C152.881 24.7747 152.486 24.1773 152.187 23.516C151.889 22.8333 151.697 22.076 151.611 21.244C151.526 20.412 151.59 19.516 151.803 18.556C151.995 17.66 152.347 16.8493 152.859 16.124C153.393 15.3987 154.054 14.78 154.843 14.268C155.633 13.7346 156.539 13.3293 157.563 13.052C158.609 12.7533 159.75 12.6146 160.987 12.636C162.033 12.6573 163.046 12.796 164.027 13.052C165.03 13.2867 165.905 13.628 166.651 14.076C167.398 14.524 167.985 15.0787 168.411 15.74C168.838 16.4013 169.009 17.148 168.923 17.98C168.859 18.62 168.667 19.132 168.347 19.516C168.049 19.9 167.675 20.188 167.227 20.38C166.801 20.572 166.331 20.7 165.819 20.764C165.307 20.8067 164.817 20.8067 164.347 20.764L163.483 20.316ZM189.416 33.724V39.004H172.712V13.212H189.096V18.492H178.952V23.388H187.496V28.54H178.952V33.724H189.416ZM209.127 33.724V39.004H192.743V13.212H199.047V33.724H209.127ZM228.821 13.212V18.492H218.389V23.644H227.957V28.924H218.389V39.004H212.149V13.212H228.821Z" fill="#111111"/>
</svg>
