<svg width="205" height="259" viewBox="0 0 205 259" fill="none" xmlns="http://www.w3.org/2000/svg">
<path d="M176.618 26.393C172.96 24.5667 169.696 21.8023 167.097 18.3504C165.095 15.689 161.876 10.647 161.634 9.7785C161.257 8.42524 158.302 8.66669 159.034 11.2924C159.411 12.6457 160.573 20.7912 158.755 26.3759C157.038 31.6924 156.214 33.1652 154.349 34.5162C153.276 35.2748 153.553 35.5453 155.375 35.5782C159.883 35.6634 162.59 38.1484 169.549 48.5652C173.603 54.6142 174.902 54.032 174.048 46.5404C173.182 39.0958 175.082 29.8294 177.801 28.108C178.704 27.5499 178.583 27.3877 176.618 26.393ZM170.399 42.033L170.461 43.9754C170.156 43.6037 165.244 35.3783 160.305 34.1948C158.956 33.8762 158.673 33.6727 159.35 33.4825C161.523 32.8728 163.52 26.9332 163.207 21.8376C163.084 19.4984 163.132 19.3979 164.122 20.6009C166.2 23.1755 169.05 25.3591 172.615 27.1243L174.957 28.2967C174.774 28.6314 170.013 31.8838 170.399 42.033Z" fill="black"/>
<path d="M200.088 45.4751C195.7 43.9192 191.736 40.0885 190.683 36.3116C190.221 34.6555 187.146 33.4713 187.5 38.4461C187.959 44.611 187.633 46.4229 185.629 49.4461C183.975 51.914 183.918 51.7994 186.831 51.6786C189.546 51.5699 192.249 53.9474 194.945 58.8311C196.622 61.8665 199.441 61.2274 198.635 57.8823C197.498 53.1708 198.01 50.2179 200.385 47.8961C201.884 46.4082 201.847 46.0921 200.088 45.4751ZM197.583 47.3325C196.833 47.8043 195.081 50.1034 194.77 50.9747C194.356 52.2015 194.38 52.1949 193.247 51.2933C192.276 50.5205 190.319 49.9156 189.17 50.042C188.284 50.1164 188.296 50.0697 189.33 48.5381C189.833 47.8092 190.434 46.4425 190.676 45.5035C191.237 43.4513 191.103 43.511 192.496 44.6227C193.559 45.4566 195.142 46.2536 197.034 46.8984C197.551 47.0364 197.753 47.2195 197.583 47.3325Z" fill="black"/>
<rect y="59" width="200" height="200" rx="100" fill="white"/>
<path d="M43.2285 196.706C50.1998 221.389 116.003 235.814 160.2 184.726" stroke="black" stroke-width="3.74755" stroke-linecap="round" stroke-linejoin="round"/>
<path d="M43.2255 196.479C50.1969 221.163 116.001 235.587 160.197 184.5" stroke="black" stroke-width="3.74755" stroke-linecap="round" stroke-linejoin="round"/>
<path d="M92.2253 189.125C92.2897 192.068 91.6478 194.285 90.2998 195.777C88.9517 197.268 86.7962 198.046 83.8332 198.111C80.8703 198.176 78.6828 197.493 77.2708 196.062C75.8588 194.631 75.1206 192.444 75.0562 189.501C74.9919 186.558 75.6337 184.341 76.9817 182.85C78.3298 181.359 80.4853 180.58 83.4483 180.516C86.4113 180.451 88.5987 181.134 90.0107 182.565C91.4227 183.996 92.1609 186.183 92.2253 189.125ZM93.5256 174.783L100.74 174.625L100.954 184.396L103.816 184.334L103.849 185.856L100.987 185.919L101.24 197.456L94.0252 197.614L93.5256 174.783ZM82.1796 189.345C82.2129 190.867 82.2603 192.105 82.3217 193.058C82.4035 194.01 82.511 194.749 82.6443 195.274C82.7776 195.799 82.9376 196.151 83.1242 196.329C83.3109 196.508 83.5361 196.595 83.7999 196.589C84.0638 196.583 84.285 196.487 84.4637 196.3C84.6423 196.113 84.7868 195.755 84.897 195.225C85.0072 194.694 85.0722 193.952 85.0919 192.997C85.1319 192.042 85.1353 190.803 85.102 189.281C85.0687 187.759 85.0111 186.522 84.9294 185.569C84.8679 184.616 84.7705 183.877 84.6372 183.352C84.5039 182.827 84.3439 182.476 84.1573 182.297C83.9706 182.118 83.7454 182.032 83.4816 182.038C83.2178 182.043 82.9965 182.14 82.8179 182.326C82.6392 182.513 82.4948 182.871 82.3845 183.402C82.2743 183.932 82.1992 184.675 82.1592 185.63C82.1395 186.585 82.1463 187.823 82.1796 189.345ZM92.5737 177.209L92.607 178.731L74.2203 179.134L74.187 177.612L92.5737 177.209ZM89.7667 174.195L89.8 175.717L76.8928 175.999L76.8595 174.477L89.7667 174.195ZM121.186 185.477L119.39 185.516L119.629 196.444L113.176 196.586L112.738 176.585L106.437 176.723L106.403 175.201L119.158 174.922L119.357 183.994L121.153 183.955L120.939 174.183L126.693 174.057L127.192 196.888L121.439 197.014L121.186 185.477ZM127.545 174.038L133.299 173.912L133.798 196.744L128.045 196.869L127.545 174.038Z" fill="black"/>
<path d="M46.7151 121.366L42.1275 124.99L40.3291 125.03L46.4824 120.153L50.7348 120.06L57.0954 124.663L51.438 124.787L46.7151 121.366ZM51.3293 116.392L51.2436 112.477L41.1839 112.697L41.1634 111.761L55.6629 111.443L55.7691 116.295L51.3293 116.392ZM57.2862 117.105L57.3067 118.042L50.7875 118.185L50.8158 119.477L46.376 119.575L46.3477 118.282L39.8098 118.425L39.7893 117.488L57.2862 117.105ZM74.6889 111.964L69.6684 112.074L75.4455 119.988L69.7693 120.112L65.5962 114.412L61.6952 120.289L59.9905 120.326L65.4159 112.167L60.3954 112.277L60.3749 111.34L74.6684 111.028L74.6889 111.964ZM76.5505 124.237C75.1714 124.592 73.7137 124.786 72.1776 124.82C70.6539 124.853 69.1954 124.723 67.8021 124.429C66.4087 124.134 64.944 124.004 63.4078 124.037C61.8842 124.071 60.4328 124.265 59.0536 124.62L59.0331 123.683C60.4123 123.328 61.8637 123.134 63.3873 123.101C64.9235 123.067 66.3882 123.197 67.7816 123.492C69.175 123.786 70.6335 123.917 72.1571 123.883C73.6932 123.85 75.1509 123.655 76.53 123.3L76.5505 124.237ZM93.8612 110.608L93.8817 111.544L83.822 111.764L83.9752 118.771L94.2223 118.546L94.2428 119.483L89.035 119.597L89.1182 123.4C90.2197 123.488 91.3255 123.489 92.4356 123.402C93.5458 123.315 94.6103 123.142 95.6292 122.883L95.6497 123.819C94.2705 124.174 92.8129 124.369 91.2767 124.402C89.7531 124.436 88.2946 124.305 86.9012 124.011C85.5079 123.716 84.0431 123.586 82.507 123.619C80.9834 123.653 79.532 123.847 78.1528 124.202L78.1323 123.265C79.1512 123.006 80.2158 122.839 81.3263 122.764C82.4489 122.677 83.5609 122.678 84.6624 122.766L84.5952 119.694L79.556 119.804L79.3822 111.861L78.4455 111.882L78.425 110.945L93.8612 110.608ZM98.0394 119.512L102.479 119.415L102.572 123.668L99.8627 125.751L98.8323 125.774L100.081 123.722L98.1324 123.765L98.0394 119.512ZM121.123 123.262C119.46 123.773 117.793 123.81 116.121 123.371C114.45 122.933 112.783 122.97 111.12 123.481L110.85 111.173L109.914 111.193L109.893 110.257L120.833 110.017L121.123 123.262ZM122.004 109.561L126.444 109.464L126.575 115.477L128.336 115.438L128.357 116.375L126.596 116.414L126.751 123.514L122.312 123.611L122.004 109.561ZM116.101 122.435C116.201 122.457 116.302 122.48 116.402 122.503C116.515 122.526 116.628 122.548 116.741 122.571L116.489 111.05L115.215 111.077L115.46 122.28C115.561 122.303 115.661 122.326 115.762 122.348C115.875 122.383 115.988 122.412 116.101 122.435ZM145.46 112.084C145.469 112.533 145.372 112.948 145.168 113.327C144.976 113.694 144.608 114.014 144.065 114.288C143.521 114.563 142.757 114.779 141.774 114.938C140.802 115.097 139.543 115.193 137.994 115.227C136.445 115.261 135.176 115.22 134.187 115.104C133.209 114.988 132.443 114.805 131.888 114.555C131.333 114.305 130.945 114.001 130.725 113.643C130.517 113.273 130.408 112.863 130.398 112.413C130.388 111.964 130.479 111.556 130.671 111.189C130.875 110.81 131.249 110.483 131.793 110.209C132.337 109.934 133.094 109.718 134.065 109.559C135.049 109.4 136.315 109.304 137.864 109.27C139.412 109.236 140.675 109.277 141.652 109.393C142.642 109.509 143.414 109.692 143.97 109.942C144.525 110.193 144.906 110.503 145.114 110.873C145.335 111.231 145.45 111.634 145.46 112.084ZM130.81 118.402L145.31 118.085L145.411 122.73C144.753 122.907 144.125 123.04 143.527 123.128C142.942 123.228 142.362 123.284 141.788 123.297C141.226 123.309 140.644 123.278 140.043 123.204C139.454 123.142 138.827 123.037 138.162 122.889C137.496 122.741 136.863 122.63 136.261 122.556C135.673 122.494 135.091 122.469 134.517 122.482C133.955 122.494 133.375 122.544 132.777 122.632C132.192 122.732 131.57 122.871 130.912 123.048L130.81 118.402ZM134.8 112.317C134.807 112.604 134.862 112.872 134.968 113.119C135.073 113.367 135.247 113.582 135.488 113.764C135.742 113.933 136.069 114.07 136.472 114.173C136.873 114.265 137.374 114.304 137.973 114.291C138.573 114.277 139.071 114.217 139.469 114.108C139.866 113.987 140.181 113.836 140.415 113.656C140.661 113.463 140.831 113.241 140.925 112.989C141.019 112.737 141.064 112.467 141.057 112.18C141.051 111.893 140.995 111.625 140.89 111.378C140.784 111.13 140.605 110.922 140.351 110.752C140.11 110.57 139.788 110.434 139.386 110.342C138.984 110.239 138.484 110.194 137.884 110.207C137.285 110.22 136.786 110.287 136.389 110.408C135.992 110.517 135.67 110.667 135.424 110.86C135.191 111.04 135.027 111.256 134.933 111.508C134.838 111.76 134.794 112.03 134.8 112.317ZM146.763 115.991L146.784 116.928L129.287 117.311L129.266 116.374L146.763 115.991ZM138.141 121.952C138.656 122.066 139.139 122.156 139.59 122.221C140.054 122.285 140.511 122.325 140.961 122.341L140.89 119.118L135.27 119.241L135.321 121.564C135.759 121.58 136.203 121.62 136.655 121.685C137.118 121.75 137.614 121.839 138.141 121.952ZM164.221 109.068L164.241 110.005L154.181 110.225L154.335 117.231L164.582 117.007L164.602 117.944L159.395 118.058L159.478 121.86C160.579 121.949 161.685 121.95 162.795 121.863C163.905 121.776 164.97 121.603 165.989 121.343L166.009 122.28C164.63 122.635 163.172 122.829 161.636 122.863C160.113 122.896 158.654 122.766 157.261 122.471C155.867 122.177 154.403 122.046 152.867 122.08C151.343 122.113 149.891 122.308 148.512 122.663L148.492 121.726C149.511 121.466 150.575 121.299 151.686 121.225C152.808 121.138 153.92 121.139 155.022 121.227L154.955 118.155L149.915 118.265L149.742 110.322L148.805 110.343L148.785 109.406L164.221 109.068Z" fill="black"/>
<path d="M99.662 148.514L93.3034 148.255L93.3653 146.734L99.7239 146.993L100.121 137.227L107.331 137.52L106.404 160.338L99.1931 160.044L99.662 148.514ZM87.7298 157.171C87.9107 157.219 88.0815 157.266 88.2421 157.314C88.423 157.362 88.6035 157.42 88.7835 157.488C90.1065 157.928 91.4779 158.176 92.8977 158.234C94.3174 158.292 95.7045 158.155 97.0588 157.824L96.9969 159.346C95.6426 159.677 94.2556 159.813 92.8358 159.755C91.416 159.698 90.0447 159.449 88.7217 159.009C87.3987 158.569 86.0273 158.321 84.6076 158.263C83.1878 158.205 81.8007 158.342 80.4464 158.673L81.2592 138.684L79.738 138.622L79.7999 137.101L88.5315 137.456L87.7298 157.171ZM111.857 150.29L119.067 150.583L118.936 153.808L129.888 154.253L130.019 151.028L137.23 151.321L136.838 160.966C134.728 161.388 132.598 161.555 130.448 161.468C128.319 161.381 126.22 161.042 124.151 160.45C122.083 159.858 119.973 159.518 117.823 159.431C115.694 159.344 113.574 159.512 111.464 159.934L111.857 150.29ZM128.547 147.525L128.485 149.046L111.934 148.373L112.277 139.946L110.756 139.884L110.818 138.362L128.585 139.085L128.523 140.606L119.488 140.239L119.207 147.145L128.547 147.525ZM130.53 138.463L137.741 138.756L137.549 143.472L140.409 143.588L140.347 145.11L137.487 144.993L137.283 150.013L130.073 149.72L130.53 138.463ZM124.213 158.929C125.98 159.427 127.796 159.745 129.659 159.881L129.826 155.774L118.874 155.329L118.766 157.976C119.677 158.053 120.587 158.162 121.496 158.3C122.404 158.459 123.309 158.668 124.213 158.929ZM157.469 150.864L155.674 150.791L155.23 161.714L148.78 161.451L149.593 141.463L143.295 141.207L143.357 139.686L156.104 140.204L155.736 149.27L157.531 149.343L157.928 139.577L163.678 139.811L162.75 162.629L157 162.395L157.469 150.864ZM164.53 139.846L170.28 140.08L169.352 162.897L163.602 162.663L164.53 139.846Z" fill="black"/>
<path d="M61.8645 135.986C65.3595 132.943 71.3135 133.646 72.1088 137.825C72.2723 136.51 72.4344 135.337 72.5955 134.349C71.9197 143.089 70.7505 153.396 69.5875 162.108C69.4997 162.905 69.4112 163.689 69.3218 164.455C69.278 164.831 69.2115 165.178 69.1242 165.497C67.7046 170.683 60.7869 168.473 56.6467 161.56C51.967 153.746 58.624 138.807 61.8645 135.986Z" fill="black"/>
<path d="M72.1704 139.369C72.6858 133.852 65.7531 132.601 61.8645 135.986C58.624 138.807 51.967 153.746 56.6467 161.56C61.0415 168.898 68.5658 170.937 69.3218 164.455C70.5285 154.11 71.5805 140.576 72.5955 134.349C71.2014 152.38 67.7074 177.078 66.4996 180.68C64.8673 185.549 53.0235 187.692 53.5392 177.556" stroke="black" stroke-width="4.68444" stroke-linecap="round" stroke-linejoin="round"/>
<rect x="61.5684" y="138.504" width="8.58814" height="8.43199" rx="4.21599" transform="rotate(-18.5104 61.5684 138.504)" fill="white"/>
<path d="M31.8918 135.976C35.3868 132.934 41.3408 133.636 42.1362 137.815C42.2997 136.5 42.4617 135.328 42.6229 134.339C41.9471 143.08 40.7779 153.387 39.6148 162.098C39.5271 162.895 39.4385 163.679 39.3492 164.446C39.3054 164.821 39.2389 165.168 39.1516 165.487C37.7319 170.674 30.8143 168.463 26.674 161.55C21.9943 153.736 28.6513 138.797 31.8918 135.976Z" fill="black"/>
<path d="M42.1977 139.359C42.7131 133.842 35.7804 132.591 31.8918 135.976C28.6514 138.797 21.9943 153.736 26.674 161.55C31.0688 168.888 38.5931 170.928 39.3492 164.446C40.5558 154.1 41.6078 140.566 42.6229 134.339C41.2288 152.37 37.7348 177.068 36.527 180.671C34.8946 185.539 23.0509 187.682 23.5666 177.546" stroke="black" stroke-width="4.68444" stroke-linecap="round" stroke-linejoin="round"/>
<rect x="31.5957" y="138.494" width="8.58814" height="8.43199" rx="4.21599" transform="rotate(-18.5104 31.5957 138.494)" fill="white"/>
</svg>
