<svg width="107" height="7" viewBox="0 0 107 7" fill="none" xmlns="http://www.w3.org/2000/svg">
<path d="M1.76862 0.884986C2.44985 0.755178 3.25044 0.808982 3.85728 0.902523C4.04256 0.931835 3.95419 1.09393 4.08557 1.12133C4.35999 1.17429 4.56619 1.09012 4.83546 1.1562C4.9156 1.17916 4.82361 1.43372 4.90772 1.45203C5.38036 1.55029 5.83913 1.4749 6.31211 1.51782C8.68057 1.72972 10.9984 1.79146 13.3808 1.87584C14.1673 1.90355 15.1286 2.1209 15.9325 2.01205C16.0281 1.99909 15.9686 1.77864 15.9866 1.76021C16.2707 1.4781 16.1802 1.92548 16.3702 1.98271C17.0804 2.20915 17.9321 2.22073 18.6129 2.12868C18.9121 2.08877 18.6067 1.6526 18.9123 1.8961C18.9336 1.91255 18.8592 2.14808 18.9423 2.17231C19.09 2.21501 19.3433 2.19632 19.5192 2.19451C19.5648 2.19404 19.6048 2.19485 19.6353 2.19858C19.9077 2.23303 19.9532 2.23024 20.2148 2.23047C20.5694 2.23286 21.0202 2.34545 21.3973 2.28887C21.478 2.27609 21.3687 2.03637 21.4974 1.99426C21.6258 1.95221 21.9712 1.96957 22.0896 2.02527C22.2076 2.081 22.1593 2.27061 22.1804 2.31379C22.3543 2.67827 22.7587 2.16785 22.812 2.15486C23.7382 1.9333 24.5843 2.21509 25.4492 2.20733C26.1122 2.20076 26.8599 2.09958 27.4821 2.10789C28.2369 2.11861 28.9098 2.24401 29.634 2.21626C29.7118 2.2136 29.6186 1.93129 29.7136 1.92747C30.7343 1.88705 31.7324 1.91079 32.7518 2.09474C32.8543 2.11344 32.7241 2.36282 32.8266 2.39635C33.4641 2.59611 34.4215 3.08012 34.7911 1.99581C35.2142 2.03519 35.7315 2.07539 36.101 2.29101C36.3423 2.42977 36.1104 2.70199 36.4055 2.58453C36.4721 2.55836 36.3837 2.32189 36.4838 2.30057C36.9054 2.211 37.3712 2.28502 37.7954 2.15979C37.8817 2.13376 37.8567 1.92151 37.881 1.88311C38.0835 1.57203 38.4181 2.08194 38.4923 2.11867C39.0509 2.39256 39.4607 2.28076 39.9882 2.2842C40.1107 2.28512 39.9641 2.00074 40.082 1.99137C40.6959 1.94661 41.3056 1.96733 41.9038 2.09024C42.0363 2.11827 41.9161 2.36204 41.9795 2.38787C42.2592 2.4988 42.3184 2.03941 42.5879 2.13693C42.6448 2.1569 42.6141 2.36515 42.6246 2.38793C42.7885 2.74562 42.9278 2.23653 42.9678 2.22506C43.4825 2.0686 43.8174 2.59715 44.3212 2.51898C44.3816 2.50909 44.2438 2.24667 44.4135 2.23497C45.5576 2.15541 46.7281 2.2208 47.861 2.42476C48.0366 2.45612 47.9125 2.6546 47.9237 2.67891C48.1059 3.05876 48.2197 2.54772 48.2748 2.52818C48.7164 2.38726 49.1349 2.81285 49.435 2.20323C51.342 2.40321 53.2249 2.05126 55.0938 2.58552C55.1177 2.5917 55.0763 2.84329 55.124 2.85453C55.6989 2.99249 55.5867 2.60245 55.9654 2.12259C56.0609 2.00209 56.3571 2.57731 56.3833 2.61945C56.4787 2.77474 56.3827 3.14922 56.4145 3.17922C56.677 3.41473 56.6255 2.17833 56.9743 2.17602C56.9852 2.17803 56.9407 2.4059 56.97 2.42837C57.0612 2.49893 57.1509 2.40799 57.2403 2.48586C57.4451 2.66605 57.5209 3.26656 57.8313 2.91514C57.8706 2.86954 57.8062 2.16838 58.1195 2.19982C58.2441 2.21295 58.7981 2.19793 58.9543 2.24255C59.1101 2.28712 59.0045 2.51374 59.0157 2.52347C59.4361 2.82013 59.2801 2.94486 59.4896 3.38629C59.699 3.82605 59.6359 2.77483 59.7198 2.65702C59.8037 2.53953 60.1088 2.78452 60.1841 2.86986C60.2592 2.95523 60.1668 3.09937 60.2335 3.14755C60.676 3.46231 60.4242 2.62458 60.5687 2.45691C60.9095 2.0599 61.1815 2.83829 61.4974 2.91302C61.5829 2.9332 61.5123 2.75597 61.5883 2.73895C61.8888 2.67392 62.0736 2.91627 62.4137 2.69136C62.4689 2.65471 62.7406 2.18442 62.9203 2.52755C62.9457 2.57703 62.8752 2.77173 63.0027 2.81459C63.1932 2.87891 63.5368 2.91958 63.7418 2.85354C63.8931 2.80469 63.7177 2.4854 63.9091 2.58386C63.9942 2.62783 63.8379 2.81598 63.9977 2.88296C64.1566 2.94993 64.5629 2.93957 64.7178 2.93229C64.8725 2.92487 64.7865 2.68242 64.7989 2.66599C64.874 2.57186 65.1706 2.45319 65.197 2.45334C66.5039 2.41686 67.7333 2.81993 69.0082 2.67787C69.1084 2.66707 69.0403 2.41128 69.0556 2.40699C69.3984 2.29792 69.1311 2.9803 69.3723 3.20701C69.335 2.68742 69.4771 2.78081 69.7192 2.72256C69.8359 2.69407 69.7713 2.49314 69.7818 2.47248C69.9535 2.16591 70.0764 2.56013 70.108 2.64074C70.2244 2.93727 70.3478 2.58556 70.4272 2.78376C70.5064 2.98048 70.3278 3.27361 70.561 3.26868C70.6255 3.08229 70.4498 2.59695 70.6266 2.51724C71.2988 2.21572 72.5345 2.59095 73.0728 2.62786C73.6082 2.66475 73.7816 2.62955 74.0948 2.69521C74.6612 2.81394 74.4521 2.45424 74.7995 2.28736C75.1478 2.1205 74.9826 3.00896 75.0337 3.19952C75.0839 3.39 75.1368 3.1934 75.1987 3.29794C75.2603 3.40246 75.1286 3.53286 75.2726 3.5715C75.4167 3.6101 75.809 3.26881 75.8592 3.06904C75.9652 2.64581 75.7851 2.20307 76.1678 2.35704C76.1898 2.36618 76.1197 2.59993 76.2039 2.62309C76.8719 2.79943 77.5741 2.80706 78.2365 2.96268C78.3281 2.98444 78.2476 3.24449 78.3009 3.2601C78.8564 3.42341 78.656 2.98661 78.958 2.49877C78.8929 3.1463 79.063 3.54143 79.4853 3.54316C79.7393 3.54442 79.6942 3.26197 79.8576 3.06194C79.9066 3.00164 80.0875 3.19483 80.1195 3.06174C80.2249 2.62667 80.0528 2.14107 80.4904 2.3326C80.5096 2.34171 80.4498 2.57987 80.5161 2.59395C80.9457 2.68612 80.9914 2.23136 81.4513 2.17404C81.8113 2.12908 82.4547 2.40308 82.8669 2.44613C82.8618 3.17381 83.2501 3.00528 83.4057 2.50281C83.673 2.52203 83.9645 2.49224 84.2207 2.56033C84.3093 2.58354 84.2522 2.7945 84.2635 2.8172C84.4364 3.17345 84.5497 2.68479 84.6071 2.66537C85.2293 2.47631 85.7398 2.84376 86.335 2.47931C86.3562 2.46618 86.388 1.96058 86.5495 2.32885C86.5599 2.35424 86.3638 2.58517 86.6449 2.60158C86.9264 2.61803 87.457 2.8864 87.8436 2.6503C87.9373 2.59346 88.1732 2.18199 88.3658 2.50164C88.3915 2.54505 88.3643 2.69015 88.4015 2.77064C88.5215 3.02709 88.5839 2.5159 88.7257 2.94924C88.8675 3.38255 89.1597 3.70617 89.5515 3.40483C89.5639 3.39606 89.655 2.99069 89.7788 2.99649C89.9763 3.0061 90.2572 3.08909 90.4637 3.08546C90.5623 3.08357 90.4979 2.83244 90.515 2.82776C91.175 2.68366 91.647 2.90554 92.3574 2.99939C92.4877 3.01709 92.8602 2.67241 93.1139 2.94226C93.3925 3.23767 93.1135 4.47343 93.7494 4.17627C94.0048 4.0574 94.321 2.4898 94.7853 3.29895C95.6767 3.0936 96.5084 3.50486 97.4024 3.21348C97.4425 3.20057 97.5677 2.76288 97.6623 2.76838C97.8028 2.77738 97.881 2.98129 97.9814 2.99426C98.4021 3.05377 98.7864 2.87715 99.1925 2.90239C99.3467 2.91152 99.2938 3.123 99.4777 3.13393C99.6616 3.14465 99.7828 2.86592 100.033 2.99906C100.221 3.10055 100.412 3.66816 100.662 3.73323C100.668 3.17241 100.84 3.18314 101.143 3.03365C101.201 3.00465 101.138 2.80977 101.165 2.78599C101.277 2.68485 101.382 2.84611 101.489 2.73609C101.515 2.70967 101.515 2.51816 101.536 2.48574C101.716 2.20285 102.016 2.63219 102.067 2.70695C102.265 2.99087 102.355 2.74135 102.507 2.8528C102.657 2.96424 102.433 3.10552 102.609 3.17274C102.974 3.31178 103.442 3.27861 103.812 3.28564C103.959 3.28726 103.857 3.03211 103.878 3.02641C104.182 2.96011 104.492 3.23056 104.658 2.72054C104.876 4.03614 104.841 2.59196 105.278 2.85344C105.313 2.87459 105.36 3.497 105.228 3.58904C105.097 3.68099 104.896 3.48732 104.714 3.63068C104.671 3.66433 104.426 4.24895 104.392 4.28445C104.129 4.56193 104.087 3.63169 104.072 3.58066C103.911 3.02993 103.611 3.65992 103.531 3.70373C103.167 3.90449 102.855 3.77513 102.551 3.91864C102.351 4.0114 102.335 4.62095 102.178 4.60305C101.656 4.54389 101.47 3.69456 100.982 4.43409C100.878 4.59182 100.986 5.25744 100.606 4.73546C100.582 4.70255 100.3 4.22472 100.139 4.52859C100.119 4.5669 100.121 4.76103 100.094 4.77747C99.9144 4.88382 99.7936 4.72974 99.5979 4.80475C99.4023 4.87976 99.1672 4.99132 98.9432 4.92655C98.8083 4.88782 98.6337 4.52696 98.5688 4.43872C98.3855 4.1845 98.1924 4.60368 98.0781 4.29532C97.963 3.98541 98.1829 3.51286 97.8839 3.3137C97.8753 3.81812 97.8524 4.33592 97.8371 4.84324C97.1849 4.82861 96.539 4.66862 95.8827 4.69407C95.8013 4.69773 95.8859 4.96847 95.7987 4.97939C95.4309 5.02423 95.1087 4.83249 94.728 4.9113C94.4334 4.97334 94.1115 5.26199 93.8039 5.3358C93.6123 4.75958 93.1538 4.95772 92.8204 4.90659C92.7036 4.88893 92.7107 4.73475 92.6274 4.68486C92.3135 4.50039 92.4627 5.0097 92.3773 5.09037C92.0109 5.4347 91.9738 4.28047 91.5406 4.31109C91.5176 4.31232 91.2401 4.92901 91.2017 4.96752C90.9575 5.21858 91.16 4.75354 91.0062 4.70882C90.7253 4.62709 90.531 4.48108 90.2008 4.66292C90.1046 4.71677 89.8754 5.10142 89.6871 4.80567C89.6623 4.76694 89.6749 4.56349 89.6551 4.55167C89.2959 4.35486 89.2896 4.99399 89.0862 5.21142C88.8827 5.42881 88.5649 4.98918 88.5002 4.86234C88.3306 4.53423 88.6282 4.72114 88.6371 4.68882C88.7422 4.30416 88.5123 4.37142 88.3364 4.33981C88.3079 3.71331 88.0624 3.75212 88.1541 4.30957C88.1645 4.37046 88.3009 4.31136 88.3364 4.33981C88.1851 4.95537 87.9155 5.03542 87.6148 4.46234C87.474 4.19375 87.6047 3.87915 87.1811 3.99607C86.9879 4.04886 87.0647 4.47996 86.8947 4.59842C86.5062 4.86871 85.9985 4.4687 85.5982 4.53407C85.453 4.55781 85.5958 4.7933 85.4965 4.81765C85.2332 4.88304 85.0001 4.70696 84.7362 4.79904C84.7123 4.80768 84.772 5.05462 84.6899 5.05818C84.069 5.08993 83.5207 4.93426 82.8682 4.93308C82.5527 4.93262 81.9904 5.07175 81.6648 5.04594C81.1015 5.00266 80.4028 4.64659 79.9186 4.73633C79.6032 4.7938 79.6737 5.04074 79.5393 5.20989C79.2801 5.53778 78.8164 4.95507 78.754 4.86479C78.7521 4.8618 79.0226 4.80216 78.8775 4.67594C78.7922 4.41187 78.7571 4.86363 78.754 4.86479C78.7129 4.80648 78.1723 4.75303 78.0655 4.80083C78.0074 4.82695 78.0411 5.06108 78.0108 5.07027C77.2907 5.28353 76.558 5.34673 75.8248 5.24086C75.8119 5.23619 75.83 4.97403 75.7996 4.96633C75.3742 4.85194 75.1044 5.17389 74.7562 5.36598C74.4099 5.55798 74.1263 5.49568 73.9166 5.04684C73.6513 5.10482 73.27 4.90785 73.0509 4.78827C72.8318 4.66869 72.804 5.17898 72.7848 5.18916C72.1868 5.51498 71.8433 5.22472 71.2202 5.18245C70.9226 5.16149 70.3346 5.23848 70.0147 5.29591C69.7618 5.34214 69.6089 5.22337 69.3766 5.301C69.3452 5.31137 69.3781 5.53835 69.3686 5.54714C69.1104 5.82023 69.2323 5.26432 69.1782 5.16542C68.9822 4.80579 68.8612 4.61434 68.5308 4.78569C68.455 4.82493 68.2351 5.6256 68.0941 5.67308C67.9112 5.73335 67.9788 5.44642 67.7876 5.51682C67.7712 5.52259 67.7755 5.69937 67.6573 5.69218C67.1086 5.66115 66.5124 5.56137 65.947 5.58203C65.8698 5.58417 65.9703 5.86408 65.8587 5.8718C65.3391 5.90774 64.7548 5.90042 64.2417 5.77185C64.1152 5.73932 64.1934 5.54256 64.1656 5.4844C63.9954 5.13254 63.7598 5.64633 63.7206 5.6563C62.7861 5.90752 62.068 5.44747 61.1087 5.67342C61.0566 5.68666 60.6589 6.23825 60.4782 5.76798C60.4658 5.73669 60.2868 5.25552 60.1329 5.58598C60.1234 5.60666 60.2344 5.85427 60.0429 5.83C59.8506 5.80579 59.5472 5.97317 59.2793 5.7019C59.1945 5.61645 58.9926 5.13659 58.7439 5.52131C58.7276 5.54816 58.3455 6.41709 58.2047 5.81977C58.1819 5.72144 58.2016 5.08841 57.9055 5.41452C57.8489 5.47774 57.9529 5.61835 57.8036 5.70732C57.5748 5.84442 57.2704 5.67656 56.9913 5.96003C56.9426 6.01021 56.7367 6.44092 56.5682 6.11579C56.5417 6.06487 56.5908 5.8533 56.5017 5.83014C56.0748 5.71905 55.6312 5.86283 55.2013 5.719C55.0491 5.66847 55.1248 5.32646 54.9661 5.2358C54.8073 5.14517 54.4888 5.0589 54.3249 5.21591C54.161 5.37299 54.344 5.91639 54.0976 5.96133C53.022 6.15652 51.9393 5.84323 50.8736 5.80259C50.7121 5.79653 50.8469 5.99057 50.6093 5.99562C49.7267 6.01514 48.2572 6.20629 47.4839 5.79688C46.8756 5.4689 47.637 5.21202 47.1731 5.07982C46.9494 5.01677 46.7126 5.65111 46.6591 5.67135C46.1345 5.87686 45.7798 5.59859 45.3017 5.68746C45.2033 5.7059 45.3014 5.96185 45.2177 5.97471C44.9316 6.02091 44.6312 5.90821 44.36 5.93079C44.2384 5.94151 44.262 6.1373 44.1501 6.12285C43.8824 6.09054 43.6463 6.00961 43.3864 5.82755C43.3627 5.81096 43.5202 5.56626 43.3238 5.55839C43.0099 5.54632 42.6028 5.36765 42.2335 5.55701C42.1238 5.61396 42.1221 6.06178 41.8843 5.75399C41.8345 5.68971 41.894 5.15162 41.6229 5.61791C41.577 5.6954 41.1219 6.3249 40.8958 5.92237C40.836 5.81642 40.6826 5.37737 40.5531 5.44733C40.5356 5.45847 40.6077 5.69855 40.5002 5.72269C40.1143 5.80361 39.7053 5.78053 39.311 5.85838C39.2056 5.87964 39.3643 6.12754 39.2073 6.15128C38.7736 6.21695 38.2454 6.15697 37.8192 6.08183C37.6612 6.05365 37.7689 5.84677 37.7573 5.82441C37.5704 5.46066 37.4649 5.95396 37.4041 5.98308C37.026 6.15754 36.7377 5.92803 36.393 5.99154C36.2979 6.00844 36.3669 6.24287 36.3481 6.26394C36.1531 6.46986 36.2966 6.0471 36.1721 6.00142C35.8252 5.87206 35.4362 5.89353 35.0763 5.92597C34.9451 5.93822 35.0945 6.20957 34.9767 6.21742C34.2756 6.26907 33.5825 6.24774 32.8929 6.10239C32.7643 6.07452 32.8436 5.86425 32.8165 5.81654C32.6297 5.48271 32.3643 5.94168 32.303 5.98565C32.0243 6.18643 31.9148 6.00174 31.6698 6.03809C30.4652 6.21896 28.9858 6.10697 27.8302 6.0399C26.3603 5.95346 25.2066 5.7631 23.7758 5.82686C23.6863 5.83064 23.7789 6.10886 23.7018 6.1157C22.7204 6.19119 21.7207 6.09089 20.7126 6.18073C20.6295 6.18761 20.7517 6.45098 20.6186 6.47091C20.3457 6.51366 20.0048 6.50247 19.7366 6.42057C19.6058 6.38113 19.7785 6.15253 19.647 6.11746C19.617 6.10939 19.5868 6.10197 19.5565 6.09518C19.2609 6.03296 18.9551 6.02436 18.6664 6.06546C18.5303 6.08543 18.7384 6.35387 18.5616 6.35875C17.3626 6.3975 16.1497 6.45696 14.9403 6.12072C14.854 6.09767 14.7718 5.54883 14.5926 5.65638C14.5808 5.8091 14.5837 5.98855 14.5797 6.15169C12.8183 6.26045 11.068 6.09302 9.31357 6.09259C9.23666 6.09268 9.37413 6.38172 9.22569 6.3834C8.3948 6.39302 7.57851 6.48871 6.72962 6.2174C6.64324 6.19096 6.67345 5.67768 6.42728 5.76068C6.38505 5.77572 6.01632 5.85257 5.9174 5.96629C5.90466 5.98338 5.97882 6.22084 5.85802 6.23074C5.16161 6.28403 4.42932 6.2496 3.73702 6.12898C3.62702 6.10903 3.73339 5.85015 3.65534 5.83373C3.09465 5.71992 2.48691 5.94043 1.99923 5.75029C1.68352 5.62399 1.75405 5.17478 1.53674 4.76593C1.49671 4.70864 1.35066 4.72656 1.28355 4.48549C1.0884 3.88033 1.06113 3.17287 0.849537 2.5284C0.830012 2.45759 0.679445 2.4981 0.592554 2.50211C0.513464 2.50284 0.458987 2.46891 0.526001 2.26351C0.524694 2.23257 0.936572 2.0117 0.991371 1.88836C1.03903 1.79693 0.883134 1.56229 0.997744 1.43703C1.1095 1.3132 1.25594 1.51104 1.41025 1.3703C1.55179 1.23034 1.46461 0.943972 1.76862 0.884986ZM72.0661 4.25383C71.8633 4.00987 71.8382 4.90729 72.055 4.69151C72.0655 4.68001 72.0765 4.26579 72.0661 4.25383ZM96.5398 3.9918C96.273 3.59732 96.0947 4.18011 96.2829 4.48486C96.4711 4.78928 96.6211 4.11138 96.5398 3.9918ZM99.28 3.68969C98.9693 3.37914 98.9267 4.65174 99.2567 4.39293C99.2759 4.37831 99.2982 3.70772 99.28 3.68969ZM2.35566 4.56849C2.35321 4.55659 2.19472 4.5553 2.19028 4.56758C2.1265 4.85737 2.44109 4.85973 2.35566 4.56849ZM102 3.36207C101.902 3.19042 101.626 3.39043 101.746 3.60389C101.844 3.7756 102.121 3.57559 102 3.36207ZM61.5083 3.35096C61.505 3.3376 61.3873 3.32619 61.3901 3.40176C61.3993 3.64514 61.5627 3.57557 61.5083 3.35096ZM106.625 3.32527C105.941 3.28065 105.522 2.23159 106.267 2.34663C106.402 2.36744 105.978 2.68319 106.15 2.77712C106.465 2.94825 106.67 2.28733 106.992 2.63942C107.051 2.70387 106.664 3.33015 106.624 3.32674C106.624 3.32625 106.625 3.32576 106.625 3.32527ZM71.9446 3.17667C71.9405 3.16483 71.7787 3.1544 71.7749 3.16618C71.6889 3.45149 72.0146 3.47266 71.9446 3.17667ZM54.6613 2.83328C54.6522 2.80805 54.2769 2.78648 54.2649 2.80985C54.0718 3.27675 54.8304 3.32173 54.6613 2.83328ZM82.8734 2.4655C83.0494 2.17806 83.2616 2.14328 83.4049 2.50244C83.2283 2.48421 83.0508 2.48227 82.8734 2.4655Z" fill="#EC8899"/>
</svg>
