<svg width="222" height="102" viewBox="0 0 222 102" fill="none" xmlns="http://www.w3.org/2000/svg">
<path d="M13.6289 24.9241L0.0689453 0.324059H15.3689L25.7489 19.1041L37.8089 0.324059H41.4089L27.8489 21.4441V42.7441H13.6289V24.9241ZM67.2525 42.7441C64.0125 41.8241 60.6125 41.3641 57.0525 41.3641C53.5325 41.3641 50.1525 41.8241 46.9125 42.7441V3.32406H43.9125V0.324059H87.5325V42.7441C84.2925 43.6641 80.9125 44.1241 77.3925 44.1241C73.8725 44.1241 70.4925 43.6641 67.2525 42.7441ZM67.2525 39.7441C68.2125 40.0241 69.1925 40.2641 70.1925 40.4641C71.2325 40.6641 72.2725 40.8041 73.3125 40.8841V3.32406H61.1325V38.6041C63.3325 38.8041 65.3725 39.1841 67.2525 39.7441ZM110.879 0.324059V38.6041C113.079 38.8041 115.119 39.1841 116.999 39.7441C117.959 40.0241 118.939 40.2641 119.939 40.4641C120.979 40.6641 122.019 40.8041 123.059 40.8841V0.324059H137.279V42.7441C134.039 43.6641 130.659 44.1241 127.139 44.1241C123.619 44.1241 120.239 43.6641 116.999 42.7441C113.759 41.8241 110.359 41.3641 106.799 41.3641C103.279 41.3641 99.8986 41.8241 96.6586 42.7441V3.32406H93.6586V0.324059H110.879ZM187.025 0.324059V27.0241H181.025L191.825 42.7441H176.105L165.305 27.0241H160.625V42.7441H146.405V3.32406H143.405V0.324059H187.025ZM160.625 24.0241H172.805V3.32406H160.625V24.0241ZM92.9382 57.3241V68.7241H78.7182V60.3241H67.1982V76.4641H92.3382V99.7441C89.0982 100.664 85.7582 101.124 82.3182 101.124C78.9182 101.124 75.5982 100.664 72.3582 99.7441C69.1182 98.8241 65.7782 98.3641 62.3382 98.3641C58.9382 98.3641 55.6182 98.8241 52.3782 99.7441V87.7441H66.5982V95.6041C67.5582 95.7241 68.5182 95.8641 69.4782 96.0241C70.4382 96.2241 71.3982 96.4641 72.3582 96.7441C74.1182 97.2641 76.0382 97.6441 78.1182 97.8841V79.4641H52.9782V60.3241H49.9782V57.3241H92.9382ZM136.594 57.3241V60.3241H114.394V76.7041H134.194V79.7041H114.394V95.7841C115.074 95.9041 115.734 96.0441 116.374 96.2041C117.054 96.3641 117.754 96.5441 118.474 96.7441C121.714 97.6641 124.734 98.1241 127.534 98.1241C130.374 98.1241 133.414 97.6641 136.654 96.7441V99.7441C133.414 100.664 130.374 101.124 127.534 101.124C124.734 101.124 121.714 100.664 118.474 99.7441C115.234 98.8241 112.174 98.3641 109.294 98.3641C106.454 98.3641 103.414 98.8241 100.174 99.7441V60.3241H97.1743V57.3241H136.594ZM156.875 57.3241V95.7241C157.555 95.8441 158.255 95.9841 158.975 96.1441C159.695 96.3441 160.435 96.5441 161.195 96.7441C164.435 97.6641 167.515 98.1241 170.435 98.1241C173.395 98.1241 176.495 97.6641 179.735 96.7441V99.7441C176.495 100.664 173.395 101.124 170.435 101.124C167.515 101.124 164.435 100.664 161.195 99.7441C157.955 98.8241 154.855 98.3641 151.895 98.3641C148.975 98.3641 145.895 98.8241 142.655 99.7441V60.3241H139.655V57.3241H156.875ZM221.555 57.3241V60.3241H199.355V76.7041H219.155V79.7041H199.355V99.7441H185.135V60.3241H182.135V57.3241H221.555Z" fill="black"/>
</svg>
