<svg width="183" height="88" viewBox="0 0 183 88" fill="none" xmlns="http://www.w3.org/2000/svg">
<path d="M83.28 0.319993V38.48H91.68V85.16C88.4 86.04 84.92 86.68 81.24 87.08C77.64 87.56 73.96 87.8 70.2 87.8C66.52 87.8 62.84 87.56 59.16 87.08C55.56 86.68 52.16 86.04 48.96 85.16C45.68 84.28 42.2 83.6 38.52 83.12C34.92 82.72 31.24 82.52 27.48 82.52C23.8 82.52 20.12 82.72 16.44 83.12C12.76 83.6 9.32 84.28 6.12 85.16V6.31999H0.12V0.319993H83.28ZM48.96 79.16C51.2 79.8 53.48 80.28 55.8 80.6C58.2 81 60.68 81.28 63.24 81.44V44.48H34.56V76.76C39.6 77.08 44.4 77.88 48.96 79.16ZM34.56 38.48H54.84V6.31999H34.56V38.48ZM181.968 0.319993V6.31999H137.568V39.08H177.168V45.08H137.568V77.24C138.928 77.48 140.248 77.76 141.528 78.08C142.888 78.4 144.288 78.76 145.728 79.16C152.208 81 158.248 81.92 163.848 81.92C169.528 81.92 175.608 81 182.088 79.16V85.16C175.608 87 169.528 87.92 163.848 87.92C158.248 87.92 152.208 87 145.728 85.16C139.248 83.32 133.128 82.4 127.368 82.4C121.688 82.4 115.608 83.32 109.128 85.16V6.31999H103.128V0.319993H181.968Z" fill="black"/>
</svg>
