<svg width="274" height="133" viewBox="0 0 274 133" fill="none" xmlns="http://www.w3.org/2000/svg">
<path d="M125.42 0.97999V58.22H138.02V128.24C133.1 129.56 127.88 130.52 122.36 131.12C116.96 131.84 111.44 132.2 105.8 132.2C100.28 132.2 94.76 131.84 89.24 131.12C83.84 130.52 78.74 129.56 73.94 128.24C69.02 126.92 63.8 125.9 58.28 125.18C52.88 124.58 47.36 124.28 41.72 124.28C36.2 124.28 30.68 124.58 25.16 125.18C19.64 125.9 14.48 126.92 9.68 128.24V9.97999H0.68V0.97999H125.42ZM73.94 119.24C77.3 120.2 80.72 120.92 84.2 121.4C87.8 122 91.52 122.42 95.36 122.66V67.22H52.34V115.64C59.9 116.12 67.1 117.32 73.94 119.24ZM52.34 58.22H82.76V9.97999H52.34V58.22ZM273.452 0.97999V9.97999H206.852V59.12H266.252V68.12H206.852V116.36C208.892 116.72 210.872 117.14 212.792 117.62C214.832 118.1 216.932 118.64 219.092 119.24C228.812 122 237.872 123.38 246.272 123.38C254.792 123.38 263.912 122 273.632 119.24V128.24C263.912 131 254.792 132.38 246.272 132.38C237.872 132.38 228.812 131 219.092 128.24C209.372 125.48 200.192 124.1 191.552 124.1C183.032 124.1 173.912 125.48 164.192 128.24V9.97999H155.192V0.97999H273.452Z" fill="#64D8C3" fill-opacity="0.5"/>
</svg>
