<svg width="216" height="273" viewBox="0 0 216 273" fill="none" xmlns="http://www.w3.org/2000/svg">
<path d="M185.615 26.6973C181.782 24.7741 178.359 21.867 175.631 18.2397C173.53 15.443 170.151 10.1457 169.896 9.23383C169.498 7.81294 166.404 8.061 167.175 10.818C167.573 12.2388 168.804 20.7894 166.91 26.6471C165.122 32.2236 164.262 33.7677 162.311 35.1822C161.189 35.9764 161.48 36.2608 163.388 36.2986C168.108 36.3961 170.948 39.0089 178.253 49.9537C182.509 56.3093 183.868 55.7006 182.96 47.8369C182.04 40.0224 184.013 30.301 186.857 28.4994C187.801 27.9152 187.674 27.7449 185.615 26.6973ZM179.131 43.0999L179.2 45.1385C178.88 44.7478 173.721 36.1066 168.547 34.8556C167.135 34.5189 166.838 34.3048 167.547 34.1064C169.82 33.4704 171.9 27.2407 171.564 21.8924C171.431 19.4372 171.481 19.3318 172.52 20.5961C174.7 23.3019 177.689 25.5987 181.425 27.4577L183.88 28.6922C183.688 29.0431 178.708 32.4479 179.131 43.0999Z" fill="black"/>
<path d="M210.231 46.7496C205.633 45.1087 201.475 41.0813 200.366 37.1155C199.879 35.3765 196.657 34.1282 197.036 39.3499C197.528 45.8208 197.19 47.7219 195.097 50.8911C193.369 53.4782 193.309 53.3578 196.36 53.2363C199.203 53.1271 202.037 55.6272 204.87 60.7575C206.631 63.9462 209.582 63.2807 208.732 59.7684C207.533 54.8217 208.063 51.7234 210.547 49.291C212.114 47.7321 212.074 47.4003 210.231 46.7496ZM207.612 48.6944C206.827 49.1883 204.997 51.598 204.672 52.5119C204.241 53.7986 204.266 53.7918 203.078 52.8435C202.06 52.0307 200.009 51.3923 198.807 51.5228C197.879 51.5994 197.892 51.5503 198.972 49.9449C199.496 49.1808 200.123 47.7474 200.375 46.7624C200.959 44.6096 200.819 44.672 202.279 45.8413C203.394 46.7184 205.053 47.5577 207.036 48.2379C207.577 48.3837 207.789 48.5761 207.612 48.6944Z" fill="black"/>
<rect y="61" width="210" height="212" rx="105" fill="white"/>
<path d="M51.4972 214.983C58.8343 240.962 128.091 256.144 174.607 202.375" stroke="black" stroke-width="3.94422" stroke-linecap="round" stroke-linejoin="round"/>
<path d="M112.678 196.471L109.25 196.546L109.53 209.361L103.443 209.494L102.812 180.659L108.899 180.526L109.127 190.939L112.555 190.864L112.678 196.471ZM82.4749 191.714L82.3641 186.652L86.4972 186.562C86.9239 186.531 87.3504 186.489 87.7766 186.437C88.2242 186.385 88.6389 186.29 89.0206 186.154C89.4022 186.017 89.7293 185.828 90.0018 185.587C90.2957 185.346 90.513 185.021 90.6536 184.611C90.8152 184.181 90.775 183.807 90.533 183.492C90.291 183.177 89.7206 182.986 88.8216 182.921L89.2573 180.86C90.8072 180.398 92.1273 180.177 93.2175 180.196C94.3292 180.214 95.2196 180.377 95.8887 180.682C96.5788 180.967 97.0573 181.351 97.3244 181.837C97.6128 182.322 97.6981 182.801 97.5802 183.274C97.3843 184.09 96.8857 184.742 96.0844 185.23C95.3039 185.696 94.3295 186.091 93.1613 186.416L102.004 186.222L102.115 191.284L94.9701 191.441C94.2017 191.479 93.4996 191.623 92.864 191.871C92.2283 192.12 91.68 192.453 91.219 192.869C90.7788 193.263 90.426 193.741 90.1605 194.303C89.895 194.864 89.7585 195.465 89.7512 196.107C89.717 197.475 89.9526 198.474 90.4579 199.104C90.9845 199.734 91.6973 200.082 92.5963 200.147C93.5166 200.213 94.2816 200.014 94.8912 199.552C95.5221 199.09 95.9121 198.355 96.061 197.347C96.1528 196.661 96.0664 196.129 95.8017 195.75C95.5369 195.371 95.2539 195.131 94.9525 195.031L94.9168 193.397C95.505 192.936 96.1938 192.675 96.9832 192.615C97.7726 192.555 98.5236 192.699 99.2364 193.046C99.9493 193.394 100.549 193.947 101.036 194.706C101.544 195.464 101.801 196.452 101.806 197.67C101.812 198.931 101.58 200.068 101.111 201.083C100.641 202.076 99.9977 202.934 99.1801 203.658C98.3621 204.359 97.391 204.904 96.2669 205.292C95.1637 205.658 93.9815 205.833 92.7204 205.818C91.5447 205.801 90.4084 205.634 89.3116 205.316C88.2361 204.998 87.2854 204.516 86.4592 203.872C85.654 203.206 85.0158 202.365 84.5449 201.349C84.0952 200.333 83.8977 199.12 83.9523 197.708C84.0083 196.361 84.3566 195.188 84.9973 194.191C85.6379 193.194 86.4525 192.332 87.441 191.605L82.4749 191.714ZM112.81 200.731C115.294 199.052 117.207 197.077 118.546 194.804C119.907 192.53 120.73 190.119 121.016 187.569L114.32 187.716L114.208 182.59L126.959 182.311L126.916 184.716C126.891 186.533 126.726 188.267 126.421 189.919L128.471 189.874L128.264 180.423L133.871 180.3L134.467 207.533L128.86 207.656L128.587 195.161L124.902 195.241C124.092 197.268 123.022 199.14 121.691 200.857C120.361 202.553 118.737 204.02 116.819 205.259L112.81 200.731ZM135.53 179.943L141.201 179.819L141.832 208.654L136.161 208.778L135.53 179.943Z" fill="black"/>
<path d="M46.8961 117.958L46.8961 116.262L40.0135 116.262L40.0135 113.185L51.1164 113.185C51.261 112.594 51.3662 112.055 51.432 111.568C51.5108 111.069 51.5634 110.602 51.5897 110.168L42.1433 110.168L42.1433 107.092L55.4353 107.092L55.4156 108.492C55.4156 108.794 55.4025 109.129 55.3762 109.498C55.363 109.853 55.3302 110.234 55.2776 110.641C55.2381 111.049 55.179 111.47 55.1001 111.904C55.0343 112.337 54.9423 112.765 54.824 113.185L57.1708 113.185L57.1708 116.262L50.6431 116.262L50.6431 117.958L46.8961 117.958ZM40.6051 122.08C42.6692 121.777 44.2338 121.33 45.2987 120.739C46.3768 120.134 46.9158 119.43 46.9158 118.628L46.9158 118.412L50.6431 118.412L50.6431 119.082C50.6431 119.569 50.7089 119.983 50.8403 120.324C50.9849 120.653 51.169 120.923 51.3925 121.133C51.616 121.33 51.8658 121.481 52.1419 121.587C52.4312 121.679 52.7204 121.738 53.0096 121.764C53.3778 121.79 53.7788 121.797 54.2126 121.784C54.6596 121.758 55.0541 121.633 55.3959 121.409L56.1847 121.882C56.2505 122.422 56.1782 122.908 55.9678 123.342C55.7706 123.789 55.4682 124.157 55.0606 124.446C54.6531 124.749 54.1666 124.966 53.6013 125.097C53.0491 125.228 52.4575 125.242 51.8264 125.136C50.9587 125.005 50.2684 124.742 49.7557 124.348C49.2561 123.966 48.9208 123.401 48.7499 122.652C48.2634 123.059 47.7178 123.414 47.113 123.717C46.5214 124.032 45.9166 124.295 45.2987 124.505C44.6808 124.729 44.0694 124.906 43.4646 125.038C42.8599 125.169 42.3142 125.261 41.8278 125.314L40.6051 122.08ZM75.0025 113.915C75.0682 114.454 75.0025 114.954 74.8053 115.414C74.6081 115.874 74.3188 116.269 73.9376 116.597C73.5563 116.913 73.0961 117.149 72.5571 117.307C72.018 117.452 71.4461 117.485 70.8413 117.406C69.8684 117.287 69.119 116.932 68.5931 116.341C68.0672 115.736 67.7188 114.987 67.5479 114.093C67.1141 114.632 66.6342 115.125 66.1083 115.572C65.5824 116.006 65.0368 116.393 64.4714 116.735C63.9192 117.064 63.3539 117.34 62.7754 117.564C62.2101 117.787 61.6579 117.958 61.1189 118.076L59.5017 114.921C60.8296 114.566 61.98 114.053 62.9529 113.383C63.939 112.712 64.6621 111.93 65.1222 111.036L60.685 111.036L60.685 107.88L74.115 107.88L74.115 111.036L69.4609 111.036C69.5398 111.785 69.783 112.397 70.1906 112.87C70.6113 113.343 71.1372 113.652 71.7682 113.797C72.1495 113.889 72.5111 113.909 72.8529 113.856C73.2079 113.803 73.5957 113.665 74.0164 113.442L75.0025 113.915ZM58.7523 119.595L70.8019 119.595C71.6302 119.595 72.4125 119.569 73.1487 119.516C73.8981 119.45 74.5621 119.306 75.1405 119.082L76.1858 122.139C75.7519 122.375 75.3049 122.553 74.8447 122.671C74.3977 122.79 73.9244 122.869 73.4248 122.908C72.9252 122.947 72.3927 122.961 71.8274 122.947C71.2621 122.947 70.6376 122.947 69.9539 122.947L58.7523 122.947L58.7523 119.595ZM77.4912 119.693L84.0583 119.693L84.0583 117.071L79.5225 117.071L79.5225 107.644L92.4398 107.644L92.4398 110.799L83.2695 110.799L83.2695 113.915L92.637 113.915L92.637 117.071L87.8053 117.071L87.8053 119.693L89.5408 119.693C90.3691 119.693 91.1513 119.667 91.8876 119.615C92.637 119.549 93.3009 119.404 93.8794 119.181L94.9246 122.237C94.4908 122.474 94.0438 122.652 93.5836 122.77C93.1366 122.888 92.6633 122.967 92.1637 123.007C91.6641 123.046 91.1316 123.059 90.5663 123.046C90.0009 123.046 89.3764 123.046 88.6928 123.046L77.4912 123.046L77.4912 119.693ZM97.0584 122.139C97.0584 121.547 97.2424 121.061 97.6105 120.679C97.9918 120.298 98.4783 120.108 99.0699 120.108C99.8719 120.108 100.47 120.364 100.865 120.877C101.259 121.376 101.456 122.027 101.456 122.829C101.456 123.342 101.384 123.848 101.239 124.348C101.095 124.847 100.884 125.314 100.608 125.748C100.332 126.182 99.9902 126.563 99.5827 126.892C99.1882 127.233 98.7347 127.496 98.2219 127.68C97.8406 127.825 97.5185 127.858 97.2556 127.779C97.0058 127.713 96.8809 127.444 96.8809 126.97C97.2096 126.852 97.5054 126.688 97.7683 126.477C98.0313 126.267 98.2482 126.037 98.4191 125.787C98.6032 125.551 98.7412 125.301 98.8333 125.038C98.9384 124.788 98.991 124.558 98.991 124.348C99.0042 123.966 98.8661 123.684 98.5769 123.5C98.2876 123.316 97.9195 123.276 97.4725 123.381C97.3542 123.21 97.2556 123.026 97.1767 122.829C97.0978 122.632 97.0584 122.402 97.0584 122.139ZM127.462 116.321L125.352 116.321L125.352 124.604L121.605 124.604L121.605 106.855L125.352 106.855L125.352 112.87L127.462 112.87L127.462 116.321ZM108.806 111.549L108.806 108.275C109.292 108.301 109.766 108.301 110.226 108.275C110.686 108.249 111.14 108.216 111.587 108.176C112.152 108.124 112.698 108.058 113.223 107.979C113.763 107.887 114.282 107.808 114.781 107.742C115.281 107.677 115.754 107.624 116.201 107.585C116.648 107.545 117.063 107.539 117.444 107.565C118.009 107.604 118.476 107.736 118.844 107.959C119.212 108.17 119.501 108.452 119.712 108.807C119.935 109.162 120.093 109.583 120.185 110.07C120.277 110.556 120.336 111.088 120.363 111.667C120.389 112.18 120.389 112.745 120.363 113.363C120.349 113.981 120.316 114.612 120.264 115.256C120.224 115.9 120.172 116.545 120.106 117.189C120.04 117.82 119.975 118.418 119.909 118.983C119.843 119.549 119.784 120.062 119.731 120.522C119.679 120.969 119.639 121.33 119.613 121.606L109.792 121.606L109.792 111.549L108.806 111.549ZM113.48 118.352L116.339 118.352C116.379 118.181 116.425 117.873 116.477 117.425C116.543 116.978 116.596 116.472 116.635 115.907C116.675 115.328 116.701 114.737 116.714 114.132C116.74 113.514 116.734 112.962 116.694 112.476C116.655 112.002 116.53 111.634 116.32 111.371C116.109 111.095 115.761 110.944 115.274 110.918C114.998 110.891 114.722 110.911 114.446 110.977C114.183 111.029 113.861 111.095 113.48 111.174L113.48 118.352ZM143.598 125.038L130.582 125.038L130.582 118.49L143.598 118.49L143.598 125.038ZM128.373 117.8L128.373 114.763L145.53 114.763L145.53 117.8L128.373 117.8ZM130.326 110.622C130.326 109.912 130.477 109.314 130.779 108.827C131.095 108.341 131.542 107.953 132.12 107.664C132.699 107.361 133.402 107.144 134.23 107.013C135.059 106.881 135.992 106.816 137.031 106.816C138.069 106.816 139.003 106.881 139.831 107.013C140.659 107.144 141.363 107.361 141.941 107.664C142.52 107.953 142.96 108.341 143.263 108.827C143.578 109.314 143.736 109.912 143.736 110.622C143.736 111.332 143.578 111.93 143.263 112.416C142.96 112.903 142.52 113.297 141.941 113.6C141.363 113.889 140.659 114.099 139.831 114.231C139.003 114.362 138.069 114.428 137.031 114.428C135.992 114.428 135.059 114.362 134.23 114.231C133.402 114.099 132.699 113.889 132.12 113.6C131.542 113.297 131.095 112.903 130.779 112.416C130.477 111.93 130.326 111.332 130.326 110.622ZM134.132 122.08L140.048 122.08L140.048 121.35L134.132 121.35L134.132 122.08ZM134.171 110.622C134.171 110.977 134.421 111.213 134.921 111.332C135.42 111.45 136.124 111.509 137.031 111.509C137.938 111.509 138.641 111.45 139.141 111.332C139.64 111.213 139.89 110.977 139.89 110.622C139.89 110.254 139.64 110.017 139.141 109.912C138.641 109.793 137.938 109.734 137.031 109.734C136.124 109.734 135.42 109.793 134.921 109.912C134.421 110.017 134.171 110.254 134.171 110.622ZM147.112 119.693L153.679 119.693L153.679 117.071L149.143 117.071L149.143 107.644L162.061 107.644L162.061 110.799L152.89 110.799L152.89 113.915L162.258 113.915L162.258 117.071L157.426 117.071L157.426 119.693L159.162 119.693C159.99 119.693 160.772 119.667 161.508 119.615C162.258 119.549 162.922 119.404 163.5 119.181L164.545 122.237C164.112 122.474 163.665 122.652 163.204 122.77C162.757 122.888 162.284 122.967 161.784 123.007C161.285 123.046 160.752 123.059 160.187 123.046C159.622 123.046 158.997 123.046 158.314 123.046L147.112 123.046L147.112 119.693Z" fill="black"/>
<path d="M84.9988 162.503L85.9298 139.608L92.0136 139.855L91.3313 156.634C93.0853 156.62 94.7705 156.453 96.3872 156.134C98.0047 155.794 99.4984 155.341 100.868 154.777L102.483 160.038C101.696 160.455 100.708 160.832 99.5181 161.169C98.3284 161.505 97.0337 161.795 95.634 162.037C94.2565 162.259 92.8385 162.426 91.3799 162.538C89.9223 162.628 88.553 162.647 87.2722 162.595L84.9988 162.503ZM96.7426 151.338L96.9704 145.734L104.463 146.039L104.764 138.642L110.848 138.889L109.676 167.708L103.592 167.46L104.235 151.642L96.7426 151.338ZM133.809 154.898L133.921 152.144C132.894 152.679 131.71 153.134 130.37 153.507C129.051 153.859 127.671 154.145 126.229 154.365C124.809 154.585 123.36 154.74 121.881 154.829C120.424 154.898 119.044 154.907 117.742 154.854L115.789 154.774L116.413 139.436L130.726 140.018L130.517 145.142L122.128 144.801L121.951 149.155C122.656 149.163 123.546 149.113 124.619 149.007C125.692 148.901 126.8 148.754 127.941 148.565C129.082 148.355 130.205 148.09 131.308 147.772C132.412 147.453 133.357 147.085 134.144 146.668L134.421 139.848L140.345 140.089L140.135 145.244L143.561 145.383L143.346 150.667L139.92 150.527L139.733 155.138L133.809 154.898ZM118.336 168.637L118.862 155.701L124.626 155.935L124.548 157.857L133.643 158.194L133.731 156.017L139.495 156.251L138.959 169.444L118.336 168.637ZM124.295 164.068L133.39 164.406L133.454 162.837L124.359 162.499L124.295 164.068ZM143.337 160.513C145.922 158.993 147.954 157.14 149.433 154.956C150.933 152.771 151.905 150.416 152.35 147.89L145.658 147.618L145.866 142.494L158.61 143.013L158.416 145.41C158.279 147.222 158.005 148.943 157.597 150.573L159.646 150.656L160.03 141.21L165.634 141.438L164.527 168.655L158.924 168.427L159.432 155.939L155.749 155.79C154.814 157.762 153.629 159.563 152.194 161.194C150.76 162.803 149.047 164.166 147.056 165.283L143.337 160.513ZM167.312 141.185L172.98 141.416L171.808 170.234L166.14 170.004L167.312 141.185Z" fill="black"/>
<path d="M65.1104 143.075C68.7888 139.873 75.0552 140.613 75.8923 145.011C76.0644 143.627 76.235 142.393 76.4046 141.352C75.6933 150.552 74.4628 161.4 73.2387 170.568C73.1463 171.407 73.0531 172.232 72.9591 173.039C72.913 173.434 72.843 173.799 72.7511 174.135C71.257 179.594 63.9763 177.267 59.6187 169.991C54.6934 161.767 61.6998 146.044 65.1104 143.075Z" fill="black"/>
<path d="M75.9571 146.636C76.4995 140.829 69.203 139.512 65.1104 143.075C61.6998 146.044 54.6934 161.767 59.6187 169.991C64.2442 177.715 72.1634 179.861 72.9591 173.039C74.229 162.15 75.3363 147.906 76.4046 141.352C74.9373 160.33 71.26 186.324 69.9888 190.115C68.2708 195.239 55.8054 197.495 56.3482 186.827" stroke="black" stroke-width="4.93027" stroke-linecap="round" stroke-linejoin="round"/>
<rect x="64.7988" y="145.727" width="9.03883" height="8.87448" rx="4.43724" transform="rotate(-18.5104 64.7988 145.727)" fill="white"/>
<path d="M33.5655 143.065C37.2439 139.863 43.5103 140.603 44.3474 145.001C44.5195 143.617 44.6901 142.383 44.8597 141.342C44.1484 150.542 42.9178 161.39 41.6938 170.558C41.6014 171.397 41.5082 172.222 41.4141 173.029C41.368 173.424 41.298 173.789 41.2062 174.125C39.712 179.584 32.4313 177.257 28.0738 169.981C23.1485 161.757 30.1549 146.034 33.5655 143.065Z" fill="black"/>
<path d="M44.4122 146.626C44.9546 140.819 37.6581 139.502 33.5655 143.065C30.1549 146.034 23.1485 161.757 28.0738 169.981C32.6993 177.705 40.6184 179.851 41.4141 173.029C42.6841 162.14 43.7914 147.896 44.8597 141.342C43.3924 160.32 39.715 186.314 38.4439 190.105C36.7259 195.229 24.2605 197.485 24.8033 186.817" stroke="black" stroke-width="4.93027" stroke-linecap="round" stroke-linejoin="round"/>
<rect x="33.2539" y="145.717" width="9.03883" height="8.87448" rx="4.43724" transform="rotate(-18.5104 33.2539 145.717)" fill="white"/>
</svg>
