<svg width="79" height="24" viewBox="0 0 79 24" fill="none" xmlns="http://www.w3.org/2000/svg">
<path d="M23.6732 15.5002V14.1242H18.0892V11.6282H27.0972C27.2146 11.1482 27.2999 10.7109 27.3532 10.3162C27.4172 9.91089 27.4599 9.53223 27.4812 9.18023H19.8172V6.68423H30.6012L30.5852 7.82023C30.5852 8.06556 30.5746 8.33756 30.5532 8.63623C30.5426 8.92423 30.5159 9.23356 30.4732 9.56423C30.4412 9.89489 30.3932 10.2362 30.3292 10.5882C30.2759 10.9402 30.2012 11.2869 30.1052 11.6282H32.0092V14.1242H26.7132V15.5002H23.6732ZM18.5692 18.8442C20.2439 18.5989 21.5132 18.2362 22.3772 17.7562C23.2519 17.2656 23.6892 16.6949 23.6892 16.0442V15.8682H26.7132V16.4122C26.7132 16.8069 26.7666 17.1429 26.8732 17.4202C26.9906 17.6869 27.1399 17.9056 27.3212 18.0762C27.5026 18.2362 27.7052 18.3589 27.9292 18.4442C28.1639 18.5189 28.3986 18.5669 28.6332 18.5882C28.9319 18.6096 29.2572 18.6149 29.6092 18.6042C29.9719 18.5829 30.2919 18.4816 30.5692 18.3002L31.2092 18.6842C31.2626 19.1216 31.2039 19.5162 31.0332 19.8682C30.8732 20.2309 30.6279 20.5296 30.2972 20.7642C29.9666 21.0096 29.5719 21.1856 29.1132 21.2922C28.6652 21.3989 28.1852 21.4096 27.6732 21.3242C26.9692 21.2176 26.4092 21.0042 25.9932 20.6842C25.5879 20.3749 25.3159 19.9162 25.1772 19.3082C24.7826 19.6389 24.3399 19.9269 23.8492 20.1722C23.3692 20.4282 22.8786 20.6416 22.3772 20.8122C21.8759 20.9936 21.3799 21.1376 20.8892 21.2442C20.3986 21.3509 19.9559 21.4256 19.5612 21.4682L18.5692 18.8442ZM38.8763 15.5002V14.1242H33.2923V11.6282H42.3003C42.4177 11.1482 42.503 10.7109 42.5563 10.3162C42.6203 9.91089 42.663 9.53223 42.6843 9.18023H35.0203V6.68423H45.8043L45.7883 7.82023C45.7883 8.06556 45.7777 8.33756 45.7563 8.63623C45.7457 8.92423 45.719 9.23356 45.6763 9.56423C45.6443 9.89489 45.5963 10.2362 45.5323 10.5882C45.479 10.9402 45.4043 11.2869 45.3083 11.6282H47.2123V14.1242H41.9163V15.5002H38.8763ZM33.7723 18.8442C35.447 18.5989 36.7163 18.2362 37.5803 17.7562C38.455 17.2656 38.8923 16.6949 38.8923 16.0442V15.8682H41.9163V16.4122C41.9163 16.8069 41.9697 17.1429 42.0763 17.4202C42.1937 17.6869 42.343 17.9056 42.5243 18.0762C42.7057 18.2362 42.9083 18.3589 43.1323 18.4442C43.367 18.5189 43.6017 18.5669 43.8363 18.5882C44.135 18.6096 44.4603 18.6149 44.8123 18.6042C45.175 18.5829 45.495 18.4816 45.7723 18.3002L46.4123 18.6842C46.4657 19.1216 46.407 19.5162 46.2363 19.8682C46.0763 20.2309 45.831 20.5296 45.5003 20.7642C45.1697 21.0096 44.775 21.1856 44.3163 21.2922C43.8683 21.3989 43.3883 21.4096 42.8763 21.3242C42.1723 21.2176 41.6123 21.0042 41.1963 20.6842C40.791 20.3749 40.519 19.9162 40.3803 19.3082C39.9857 19.6389 39.543 19.9269 39.0523 20.1722C38.5723 20.4282 38.0817 20.6416 37.5803 20.8122C37.079 20.9936 36.583 21.1376 36.0923 21.2442C35.6017 21.3509 35.159 21.4256 34.7643 21.4682L33.7723 18.8442ZM62.9595 14.1722H61.2475V20.8922H58.2075V6.49223H61.2475V11.3722H62.9595V14.1722ZM47.8235 10.3002V7.64423C48.2181 7.66556 48.6021 7.66556 48.9755 7.64423C49.3488 7.62289 49.7168 7.59623 50.0795 7.56423C50.5381 7.52156 50.9808 7.46823 51.4075 7.40423C51.8448 7.32956 52.2661 7.26556 52.6715 7.21223C53.0768 7.15889 53.4608 7.11623 53.8235 7.08423C54.1861 7.05223 54.5221 7.04689 54.8315 7.06823C55.2901 7.10023 55.6688 7.20689 55.9675 7.38823C56.2661 7.55889 56.5008 7.78823 56.6715 8.07623C56.8528 8.36423 56.9808 8.70556 57.0555 9.10023C57.1301 9.49489 57.1781 9.92689 57.1995 10.3962C57.2208 10.8122 57.2208 11.2709 57.1995 11.7722C57.1888 12.2736 57.1621 12.7856 57.1195 13.3082C57.0875 13.8309 57.0448 14.3536 56.9915 14.8762C56.9381 15.3882 56.8848 15.8736 56.8315 16.3322C56.7781 16.7909 56.7301 17.2069 56.6875 17.5802C56.6448 17.9429 56.6128 18.2362 56.5915 18.4602H48.6235V10.3002H47.8235ZM51.6155 15.8202H53.9355C53.9675 15.6816 54.0048 15.4309 54.0475 15.0682C54.1008 14.7056 54.1435 14.2949 54.1755 13.8362C54.2075 13.3669 54.2288 12.8869 54.2395 12.3962C54.2608 11.8949 54.2555 11.4469 54.2235 11.0522C54.1915 10.6682 54.0901 10.3696 53.9195 10.1562C53.7488 9.93223 53.4661 9.80956 53.0715 9.78823C52.8475 9.76689 52.6235 9.7829 52.3995 9.83623C52.1861 9.8789 51.9248 9.93223 51.6155 9.99623V15.8202ZM74.3706 15.8362V6.49223H77.1226V15.8362H74.3706ZM63.4426 13.7562C63.8906 13.5642 64.3226 13.3562 64.7386 13.1322C65.1653 12.8976 65.5653 12.6469 65.9386 12.3802C65.5439 12.4016 65.1653 12.4122 64.8026 12.4122C64.4399 12.4122 64.1199 12.4069 63.8426 12.3962V10.3322C64.0773 10.3429 64.3546 10.3482 64.6746 10.3482C65.0053 10.3482 65.3466 10.3482 65.6986 10.3482C66.0506 10.3482 66.4079 10.3482 66.7706 10.3482C67.1333 10.3376 67.4799 10.3216 67.8106 10.3002C67.8853 10.1296 67.9386 9.93223 67.9706 9.70823H64.1946V7.51623H70.9306L70.8826 8.20423C70.8399 8.92956 70.7013 9.63889 70.4666 10.3322H71.2986V6.65223H74.0186V14.9402H71.2986V12.8122H69.1386C68.6053 13.5056 67.9759 14.1242 67.2506 14.6682C66.5253 15.2016 65.7146 15.6549 64.8186 16.0282L63.4426 13.7562ZM65.0266 18.8442C65.9759 18.6842 66.7813 18.4922 67.4426 18.2682C68.1146 18.0336 68.6586 17.7829 69.0746 17.5162C69.4906 17.2389 69.7893 16.9456 69.9706 16.6362C70.1626 16.3162 70.2586 15.9962 70.2586 15.6762V15.5002H73.2826V15.9002C73.2826 16.3802 73.3413 16.7802 73.4586 17.1002C73.5866 17.4096 73.7466 17.6656 73.9386 17.8682C74.1306 18.0602 74.3439 18.2042 74.5786 18.3002C74.8239 18.3856 75.0639 18.4389 75.2986 18.4602C75.5973 18.4816 75.9226 18.4869 76.2746 18.4762C76.6373 18.4549 76.9573 18.3536 77.2346 18.1722L77.8746 18.5562C77.9279 18.9936 77.8693 19.3882 77.6986 19.7402C77.5386 20.1029 77.2933 20.4016 76.9626 20.6362C76.6319 20.8816 76.2373 21.0576 75.7786 21.1642C75.3306 21.2709 74.8506 21.2816 74.3386 21.1962C72.9733 20.9936 72.1253 20.2736 71.7946 19.0362C71.3893 19.4096 70.9359 19.7349 70.4346 20.0122C69.9439 20.3002 69.4373 20.5402 68.9146 20.7322C68.3919 20.9349 67.8799 21.0949 67.3786 21.2122C66.8773 21.3402 66.4239 21.4256 66.0186 21.4682L65.0266 18.8442Z" fill="white"/>
<path d="M18.524 16.2226C13.7888 22.7349 1.03765 20.8265 1 10.4994C1.04474 -1.29866 17.6812 -2.10647 20 8.07296" stroke="white" stroke-width="2" stroke-miterlimit="10" stroke-linecap="round"/>
<path d="M8.28158 7.36395C8.41104 7.98414 8.46183 8.09419 7.74263 9.16442C7.02343 10.2346 5.86647 10.2328 5.15967 9.73191C4.45288 9.23102 4.44135 8.24128 4.74842 7.74624C5.13226 7.12743 6.01117 6.89303 6.98834 7.35787C7.77008 7.72974 8.35576 8.81329 8.40712 10.4162C8.45847 12.0191 7.61596 13.4744 6.04239 13.3772C4.46882 13.2799 4.00716 11.9075 4.37728 11.2346" stroke="white" stroke-width="1.5" stroke-linecap="round"/>
<path d="M16.3377 7.3647C16.4666 7.98502 16.5173 8.09512 15.797 9.16465C15.0768 10.2342 13.9198 10.2312 13.2135 9.72966C12.5072 9.22809 12.4966 8.23834 12.8042 7.74359C13.1886 7.12515 14.0678 6.8916 15.0445 7.35737C15.8259 7.73 16.4105 8.81412 16.4603 10.4171C16.5101 12.0201 15.6662 13.4746 14.0927 13.3758C12.5193 13.277 12.0589 11.9041 12.4297 11.2316" stroke="white" stroke-width="1.5" stroke-linecap="round"/>
<path d="M9.15234 14.8167C9.56801 15.3642 10.8813 15.6667 11.8116 14.5542" stroke="white" stroke-width="1.5" stroke-linecap="round"/>
</svg>
