<svg width="151" height="45" viewBox="0 0 151 45" fill="none" xmlns="http://www.w3.org/2000/svg">
<rect x="23" y="12" width="7" height="6" rx="3" fill="#64D8C3"/>
<rect x="7" y="12" width="7" height="6" rx="3" fill="#64D8C3"/>
<path d="M14.3724 12.0696C14.6363 13.334 14.7399 13.5584 13.2736 15.7404C11.8073 17.9223 9.44847 17.9186 8.00747 16.8974C6.56647 15.8762 6.54296 13.8583 7.16901 12.849C7.95158 11.5874 9.74349 11.1095 11.7357 12.0572C13.3295 12.8154 14.5236 15.0245 14.6283 18.2926C14.733 21.5606 13.0153 24.5276 9.80714 24.3293C6.59896 24.131 5.65774 21.333 6.41232 19.961" stroke="#111111" stroke-width="2" stroke-linecap="round"/>
<path d="M30.7977 12.0706C31.0604 13.3353 31.1638 13.5598 29.6954 15.7403C28.227 17.9209 25.8682 17.9149 24.4282 16.8923C22.9881 15.8697 22.9666 13.8518 23.5936 12.8431C24.3774 11.5822 26.1697 11.106 28.1611 12.0557C29.7541 12.8154 30.9461 15.0256 31.0477 18.2938C31.1492 21.5619 29.4287 24.5273 26.2207 24.3259C23.0127 24.1245 22.0742 21.3256 22.8301 19.9544" stroke="#111111" stroke-width="2" stroke-linecap="round"/>
<path d="M15.9063 25.959C16.7365 27.0525 19.3595 27.6567 21.2174 25.4348" stroke="#111111" stroke-width="2" stroke-linecap="round"/>
<path d="M32.4364 28.4393C24.2121 39.75 2.06539 36.4354 2 18.499C2.07771 -1.99242 30.9727 -3.39545 35 14.2846" stroke="#111111" stroke-width="3" stroke-miterlimit="10" stroke-linecap="round"/>
<path d="M41.448 29.832V27.08H30.28V22.088H48.296C48.5307 21.128 48.7013 20.2533 48.808 19.464C48.936 18.6533 49.0213 17.896 49.064 17.192H33.736V12.2H55.304L55.272 14.472C55.272 14.9627 55.2507 15.5067 55.208 16.104C55.1867 16.68 55.1333 17.2987 55.048 17.96C54.984 18.6213 54.888 19.304 54.76 20.008C54.6533 20.712 54.504 21.4053 54.312 22.088H58.12V27.08H47.528V29.832H41.448ZM31.24 36.52C34.5893 36.0293 37.128 35.304 38.856 34.344C40.6053 33.3627 41.48 32.2213 41.48 30.92V30.568H47.528V31.656C47.528 32.4453 47.6347 33.1173 47.848 33.672C48.0827 34.2053 48.3813 34.6427 48.744 34.984C49.1067 35.304 49.512 35.5493 49.96 35.72C50.4293 35.8693 50.8987 35.9653 51.368 36.008C51.9653 36.0507 52.616 36.0613 53.32 36.04C54.0453 35.9973 54.6853 35.7947 55.24 35.432L56.52 36.2C56.6267 37.0747 56.5093 37.864 56.168 38.568C55.848 39.2933 55.3573 39.8907 54.696 40.36C54.0347 40.8507 53.2453 41.2027 52.328 41.416C51.432 41.6293 50.472 41.6507 49.448 41.48C48.04 41.2667 46.92 40.84 46.088 40.2C45.2773 39.5813 44.7333 38.664 44.456 37.448C43.6667 38.1093 42.7813 38.6853 41.8 39.176C40.84 39.688 39.8587 40.1147 38.856 40.456C37.8533 40.8187 36.8613 41.1067 35.88 41.32C34.8987 41.5333 34.0133 41.6827 33.224 41.768L31.24 36.52ZM71.8543 29.832V27.08H60.6863V22.088H78.7023C78.9369 21.128 79.1076 20.2533 79.2143 19.464C79.3423 18.6533 79.4276 17.896 79.4703 17.192H64.1423V12.2H85.7103L85.6783 14.472C85.6783 14.9627 85.6569 15.5067 85.6143 16.104C85.5929 16.68 85.5396 17.2987 85.4543 17.96C85.3903 18.6213 85.2943 19.304 85.1663 20.008C85.0596 20.712 84.9103 21.4053 84.7183 22.088H88.5263V27.08H77.9343V29.832H71.8543ZM61.6463 36.52C64.9956 36.0293 67.5343 35.304 69.2623 34.344C71.0116 33.3627 71.8863 32.2213 71.8863 30.92V30.568H77.9343V31.656C77.9343 32.4453 78.0409 33.1173 78.2543 33.672C78.4889 34.2053 78.7876 34.6427 79.1503 34.984C79.5129 35.304 79.9183 35.5493 80.3663 35.72C80.8356 35.8693 81.3049 35.9653 81.7743 36.008C82.3716 36.0507 83.0223 36.0613 83.7263 36.04C84.4516 35.9973 85.0916 35.7947 85.6463 35.432L86.9263 36.2C87.0329 37.0747 86.9156 37.864 86.5743 38.568C86.2543 39.2933 85.7636 39.8907 85.1023 40.36C84.4409 40.8507 83.6516 41.2027 82.7343 41.416C81.8383 41.6293 80.8783 41.6507 79.8543 41.48C78.4463 41.2667 77.3263 40.84 76.4943 40.2C75.6836 39.5813 75.1396 38.664 74.8623 37.448C74.0729 38.1093 73.1876 38.6853 72.2063 39.176C71.2463 39.688 70.2649 40.1147 69.2623 40.456C68.2596 40.8187 67.2676 41.1067 66.2863 41.32C65.3049 41.5333 64.4196 41.6827 63.6302 41.768L61.6463 36.52ZM120.021 27.176H116.597V40.616H110.517V11.816H116.597V21.576H120.021V27.176ZM89.7485 19.432V14.12C90.5378 14.1627 91.3058 14.1627 92.0525 14.12C92.7992 14.0773 93.5352 14.024 94.2605 13.96C95.1778 13.8747 96.0632 13.768 96.9165 13.64C97.7912 13.4907 98.6338 13.3627 99.4445 13.256C100.255 13.1493 101.023 13.064 101.749 13C102.474 12.936 103.146 12.9253 103.765 12.968C104.682 13.032 105.439 13.2453 106.037 13.608C106.634 13.9493 107.103 14.408 107.444 14.984C107.807 15.56 108.063 16.2427 108.213 17.032C108.362 17.8213 108.458 18.6853 108.501 19.624C108.543 20.456 108.543 21.3733 108.501 22.376C108.479 23.3787 108.426 24.4027 108.341 25.448C108.277 26.4933 108.191 27.5387 108.085 28.584C107.978 29.608 107.871 30.5787 107.765 31.496C107.658 32.4133 107.562 33.2453 107.477 33.992C107.391 34.7173 107.327 35.304 107.285 35.752H91.3485V19.432H89.7485ZM97.3325 30.472H101.973C102.037 30.1947 102.111 29.6933 102.197 28.968C102.303 28.2427 102.389 27.4213 102.453 26.504C102.517 25.5653 102.559 24.6053 102.581 23.624C102.623 22.6213 102.613 21.7253 102.549 20.936C102.485 20.168 102.282 19.5707 101.941 19.144C101.599 18.696 101.034 18.4507 100.245 18.408C99.7965 18.3653 99.3485 18.3973 98.9005 18.504C98.4738 18.5893 97.9512 18.696 97.3325 18.824V30.472ZM142.843 30.504V11.816H148.347V30.504H142.843ZM120.987 26.344C121.883 25.96 122.747 25.544 123.579 25.096C124.432 24.6267 125.232 24.1253 125.979 23.592C125.189 23.6347 124.432 23.656 123.707 23.656C122.981 23.656 122.341 23.6453 121.787 23.624V19.496C122.256 19.5173 122.811 19.528 123.451 19.528C124.112 19.528 124.795 19.528 125.499 19.528C126.203 19.528 126.917 19.528 127.643 19.528C128.368 19.5067 129.061 19.4747 129.723 19.432C129.872 19.0907 129.979 18.696 130.043 18.248H122.491V13.864H135.963L135.867 15.24C135.781 16.6907 135.504 18.1093 135.035 19.496H136.699V12.136H142.139V28.712H136.699V24.456H132.379C131.312 25.8427 130.053 27.08 128.603 28.168C127.152 29.2347 125.531 30.1413 123.739 30.888L120.987 26.344ZM124.155 36.52C126.053 36.2 127.664 35.816 128.987 35.368C130.331 34.8987 131.419 34.3973 132.251 33.864C133.083 33.3093 133.68 32.7227 134.043 32.104C134.427 31.464 134.619 30.824 134.619 30.184V29.832H140.667V30.632C140.667 31.592 140.784 32.392 141.019 33.032C141.275 33.6507 141.595 34.1627 141.979 34.568C142.363 34.952 142.789 35.24 143.259 35.432C143.749 35.6027 144.229 35.7093 144.699 35.752C145.296 35.7947 145.947 35.8053 146.651 35.784C147.376 35.7413 148.016 35.5387 148.571 35.176L149.851 35.944C149.957 36.8187 149.84 37.608 149.499 38.312C149.179 39.0373 148.688 39.6347 148.027 40.104C147.365 40.5947 146.576 40.9467 145.659 41.16C144.763 41.3733 143.803 41.3947 142.779 41.224C140.048 40.8187 138.352 39.3787 137.691 36.904C136.88 37.6507 135.973 38.3013 134.971 38.856C133.989 39.432 132.976 39.912 131.931 40.296C130.885 40.7013 129.861 41.0213 128.859 41.256C127.856 41.512 126.949 41.6827 126.139 41.768L124.155 36.52Z" fill="#111111"/>
</svg>
