<svg width="223" height="105" viewBox="0 0 223 105" fill="none" xmlns="http://www.w3.org/2000/svg">
<path d="M14.46 25.26L0.9 0.659997H16.2L26.58 19.44L38.64 0.659997H42.24L28.68 21.78V43.08H14.46V25.26ZM68.0836 43.08C64.8436 42.16 61.4436 41.7 57.8836 41.7C54.3636 41.7 50.9836 42.16 47.7436 43.08V3.66H44.7436V0.659997H88.3636V43.08C85.1236 44 81.7436 44.46 78.2236 44.46C74.7036 44.46 71.3236 44 68.0836 43.08ZM68.0836 40.08C69.0436 40.36 70.0236 40.6 71.0236 40.8C72.0636 41 73.1036 41.14 74.1436 41.22V3.66H61.9636V38.94C64.1636 39.14 66.2036 39.52 68.0836 40.08ZM111.71 0.659997V38.94C113.91 39.14 115.95 39.52 117.83 40.08C118.79 40.36 119.77 40.6 120.77 40.8C121.81 41 122.85 41.14 123.89 41.22V0.659997H138.11V43.08C134.87 44 131.49 44.46 127.97 44.46C124.45 44.46 121.07 44 117.83 43.08C114.59 42.16 111.19 41.7 107.63 41.7C104.11 41.7 100.73 42.16 97.4897 43.08V3.66H94.4897V0.659997H111.71ZM187.856 0.659997V27.36H181.856L192.656 43.08H176.936L166.136 27.36H161.456V43.08H147.236V3.66H144.236V0.659997H187.856ZM161.456 24.36H173.636V3.66H161.456V24.36ZM93.7692 60.66V72.06H79.5492V63.66H68.0292V79.8H93.1692V103.08C89.9292 104 86.5892 104.46 83.1492 104.46C79.7492 104.46 76.4292 104 73.1892 103.08C69.9492 102.16 66.6092 101.7 63.1692 101.7C59.7692 101.7 56.4492 102.16 53.2092 103.08V91.08H67.4292V98.94C68.3892 99.06 69.3492 99.2 70.3092 99.36C71.2692 99.56 72.2292 99.8 73.1892 100.08C74.9492 100.6 76.8692 100.98 78.9492 101.22V82.8H53.8092V63.66H50.8092V60.66H93.7692ZM137.425 60.66V63.66H115.225V80.04H135.025V83.04H115.225V99.12C115.905 99.24 116.565 99.38 117.205 99.54C117.885 99.7 118.585 99.88 119.305 100.08C122.545 101 125.565 101.46 128.365 101.46C131.205 101.46 134.245 101 137.485 100.08V103.08C134.245 104 131.205 104.46 128.365 104.46C125.565 104.46 122.545 104 119.305 103.08C116.065 102.16 113.005 101.7 110.125 101.7C107.285 101.7 104.245 102.16 101.005 103.08V63.66H98.0053V60.66H137.425ZM157.706 60.66V99.06C158.386 99.18 159.086 99.32 159.806 99.48C160.526 99.68 161.266 99.88 162.026 100.08C165.266 101 168.346 101.46 171.266 101.46C174.226 101.46 177.326 101 180.566 100.08V103.08C177.326 104 174.226 104.46 171.266 104.46C168.346 104.46 165.266 104 162.026 103.08C158.786 102.16 155.686 101.7 152.726 101.7C149.806 101.7 146.726 102.16 143.486 103.08V63.66H140.486V60.66H157.706ZM222.386 60.66V63.66H200.186V80.04H219.986V83.04H200.186V103.08H185.966V63.66H182.966V60.66H222.386Z" fill="black"/>
</svg>
