<svg width="592" height="286" viewBox="0 0 592 286" fill="none" xmlns="http://www.w3.org/2000/svg">
<path d="M36.56 66.36L0.4 0.759991H41.2L68.88 50.84L101.04 0.759991H110.64L74.48 57.08V113.88H36.56V66.36ZM179.556 113.88C170.916 111.427 161.85 110.2 152.356 110.2C142.97 110.2 133.956 111.427 125.316 113.88V8.75999H117.316V0.759991H233.636V113.88C224.996 116.333 215.983 117.56 206.596 117.56C197.21 117.56 188.196 116.333 179.556 113.88ZM179.556 105.88C182.116 106.627 184.73 107.267 187.396 107.8C190.17 108.333 192.943 108.707 195.716 108.92V8.75999H163.236V102.84C169.103 103.373 174.543 104.387 179.556 105.88ZM295.893 0.759991V102.84C301.759 103.373 307.199 104.387 312.213 105.88C314.773 106.627 317.386 107.267 320.053 107.8C322.826 108.333 325.599 108.707 328.373 108.92V0.759991H366.293V113.88C357.653 116.333 348.639 117.56 339.253 117.56C329.866 117.56 320.853 116.333 312.213 113.88C303.573 111.427 294.506 110.2 285.013 110.2C275.626 110.2 266.613 111.427 257.973 113.88V8.75999H249.973V0.759991H295.893ZM498.949 0.759991V71.96H482.949L511.749 113.88H469.829L441.029 71.96H428.549V113.88H390.629V8.75999H382.629V0.759991H498.949ZM428.549 63.96H461.029V8.75999H428.549V63.96ZM248.051 168.76V199.16H210.131V176.76H179.411V219.8H246.451V281.88C237.811 284.333 228.905 285.56 219.731 285.56C210.665 285.56 201.811 284.333 193.171 281.88C184.531 279.427 175.625 278.2 166.451 278.2C157.385 278.2 148.531 279.427 139.891 281.88V249.88H177.811V270.84C180.371 271.16 182.931 271.533 185.491 271.96C188.051 272.493 190.611 273.133 193.171 273.88C197.865 275.267 202.985 276.28 208.531 276.92V227.8H141.491V176.76H133.491V168.76H248.051ZM364.468 168.76V176.76H305.268V220.44H358.068V228.44H305.268V271.32C307.081 271.64 308.841 272.013 310.548 272.44C312.361 272.867 314.228 273.347 316.148 273.88C324.788 276.333 332.841 277.56 340.308 277.56C347.881 277.56 355.988 276.333 364.628 273.88V281.88C355.988 284.333 347.881 285.56 340.308 285.56C332.841 285.56 324.788 284.333 316.148 281.88C307.508 279.427 299.348 278.2 291.668 278.2C284.094 278.2 275.988 279.427 267.348 281.88V176.76H259.348V168.76H364.468ZM418.549 168.76V271.16C420.362 271.48 422.229 271.853 424.149 272.28C426.069 272.813 428.042 273.347 430.069 273.88C438.709 276.333 446.922 277.56 454.709 277.56C462.602 277.56 470.869 276.333 479.509 273.88V281.88C470.869 284.333 462.602 285.56 454.709 285.56C446.922 285.56 438.709 284.333 430.069 281.88C421.429 279.427 413.162 278.2 405.269 278.2C397.482 278.2 389.269 279.427 380.629 281.88V176.76H372.629V168.76H418.549ZM591.03 168.76V176.76H531.83V220.44H584.63V228.44H531.83V281.88H493.91V176.76H485.91V168.76H591.03Z" fill="#64D8C3" fill-opacity="0.5"/>
</svg>
