<svg width="46" height="46" viewBox="0 0 46 46" fill="none" xmlns="http://www.w3.org/2000/svg">
<rect width="46" height="46" rx="23" fill="#1DC6A7" fill-opacity="0.9"/>
<g clip-path="url(#clip0_678_4429)">
<path d="M18.7146 32.4284L11.8574 34.1426L13.5717 28.9998V13.5712C13.5717 13.1166 13.7523 12.6805 14.0738 12.359C14.3953 12.0375 14.8313 11.8569 15.286 11.8569H32.4289C32.8835 11.8569 33.3196 12.0375 33.641 12.359C33.9625 12.6805 34.1431 13.1166 34.1431 13.5712V30.7141C34.1431 31.1687 33.9625 31.6048 33.641 31.9262C33.3196 32.2477 32.8835 32.4284 32.4289 32.4284H18.7146Z" stroke="white" stroke-width="1.5" stroke-linecap="round" stroke-linejoin="round"/>
<path d="M21.2861 19.5714C21.2861 19.0629 21.4369 18.5657 21.7195 18.1428C22.0021 17.72 22.4037 17.3904 22.8735 17.1957C23.3434 17.0011 23.8604 16.9502 24.3592 17.0494C24.858 17.1486 25.3162 17.3935 25.6758 17.7532C26.0355 18.1128 26.2804 18.571 26.3796 19.0698C26.4788 19.5686 26.4279 20.0856 26.2333 20.5555C26.0386 21.0253 25.709 21.4269 25.2862 21.7095C24.8633 21.9921 24.3661 22.1429 23.8576 22.1429V23.8571" stroke="white" stroke-width="1.5" stroke-linecap="round" stroke-linejoin="round"/>
<path d="M23.8573 28.1428C23.6206 28.1428 23.4287 27.9509 23.4287 27.7142C23.4287 27.4775 23.6206 27.2856 23.8573 27.2856" stroke="white" stroke-width="1.5" stroke-linecap="round" stroke-linejoin="round"/>
<path d="M23.8574 28.1428C24.0941 28.1428 24.286 27.9509 24.286 27.7142C24.286 27.4775 24.0941 27.2856 23.8574 27.2856" stroke="white" stroke-width="1.5" stroke-linecap="round" stroke-linejoin="round"/>
</g>
<defs>
<clipPath id="clip0_678_4429">
<rect width="24" height="24" fill="white" transform="translate(11 11)"/>
</clipPath>
</defs>
</svg>
