<svg width="20" height="20" viewBox="0 0 20 20" fill="none" xmlns="http://www.w3.org/2000/svg">
<g clip-path="url(#clip0_1691_17282)">
<path d="M18.3686 9.69549L9.96916 18.1655C9.64326 18.4975 9.25443 18.7614 8.82542 18.9414C8.3964 19.1215 7.93579 19.2142 7.47052 19.2142C7.00523 19.2142 6.54463 19.1215 6.1156 18.9414C5.68659 18.7614 5.29776 18.4975 4.97187 18.1655L2.4591 15.6104C1.8013 14.9422 1.43262 14.0423 1.43262 13.1047C1.43262 12.1671 1.8013 11.2671 2.4591 10.599L11.4091 1.62078C11.6715 1.35615 11.9838 1.14611 12.3278 1.00278C12.6719 0.859442 13.0409 0.785645 13.4136 0.785645C13.7863 0.785645 14.1554 0.859442 14.4994 1.00278C14.8434 1.14611 15.1557 1.35615 15.4181 1.62078L16.4204 2.62307C16.6851 2.88552 16.8951 3.19779 17.0384 3.54184C17.1819 3.88588 17.2556 4.25491 17.2556 4.62762C17.2556 5.00034 17.1819 5.36937 17.0384 5.71341C16.8951 6.05747 16.6851 6.36972 16.4204 6.63218L8.48692 14.5939C8.35567 14.7264 8.19955 14.8314 8.02752 14.9029C7.8555 14.9746 7.67099 15.0115 7.48463 15.0115C7.29827 15.0115 7.11376 14.9746 6.94173 14.9029C6.76972 14.8314 6.61357 14.7264 6.48235 14.5939L5.98826 14.0858C5.85595 13.9545 5.75093 13.7984 5.67926 13.6264C5.6076 13.4544 5.5707 13.2699 5.5707 13.0835C5.5707 12.8971 5.6076 12.7126 5.67926 12.5406C5.75093 12.3686 5.85595 12.2124 5.98826 12.0812L11.3102 6.80158" stroke="#111111" stroke-width="1.5" stroke-linecap="round" stroke-linejoin="round"/>
</g>
<defs>
<clipPath id="clip0_1691_17282">
<rect width="20" height="20" fill="white"/>
</clipPath>
</defs>
</svg>
