<svg width="40" height="40" viewBox="0 0 40 40" fill="none" xmlns="http://www.w3.org/2000/svg">
<g clip-path="url(#clip0_677_19889)">
<path d="M14.2859 32.5714L5.14307 34.8571L7.42878 28V7.42854C7.42878 6.82232 7.6696 6.24095 8.09824 5.81229C8.52691 5.38364 9.10828 5.14282 9.7145 5.14282H32.5716C33.1778 5.14282 33.7593 5.38364 34.1879 5.81229C34.6164 6.24095 34.8574 6.82232 34.8574 7.42854V30.2857C34.8574 30.8919 34.6164 31.4733 34.1879 31.9019C33.7593 32.3305 33.1778 32.5714 32.5716 32.5714H14.2859Z" stroke="#111111" stroke-width="2" stroke-linecap="round" stroke-linejoin="round"/>
<path d="M14.2861 15.4286H28.0004" stroke="#111111" stroke-width="2" stroke-linecap="round" stroke-linejoin="round"/>
<path d="M14.2861 22.2856H23.429" stroke="#111111" stroke-width="2" stroke-linecap="round" stroke-linejoin="round"/>
</g>
<path d="M32.4736 0.0910843C32.1109 -0.0303614 31.8891 -0.0303614 31.5264 0.0910843C30.6418 0.387352 30.6802 2.26226 30.9535 4.11209C30.2614 2.37497 29.3535 0.734112 28.4397 0.921906C28.0651 0.998887 27.8732 1.11027 27.6205 1.39732C27.0129 2.08767 27.9511 3.65467 29.094 5.10032C27.6458 3.96068 26.0767 3.02588 25.3877 3.63504C25.1012 3.88834 24.9903 4.0805 24.9141 4.45526C24.7296 5.36326 26.3489 6.26149 28.0743 6.948C26.2368 6.67971 24.3853 6.64783 24.0911 7.52643C23.9696 7.88905 23.9696 8.11095 24.0911 8.47357C24.3853 9.35217 26.2368 9.32029 28.0743 9.052C26.3489 9.73851 24.7296 10.6367 24.9141 11.5447C24.9903 11.9195 25.1012 12.1117 25.3877 12.365C26.0767 12.9741 27.6458 12.0393 29.0939 10.8997C27.9511 12.3454 27.0129 13.9123 27.6205 14.6027C27.8732 14.8897 28.0651 15.0011 28.4397 15.0781C29.3535 15.2659 30.2615 13.625 30.9536 11.8878C30.6802 13.7377 30.6418 15.6126 31.5264 15.9089C31.8891 16.0304 32.1109 16.0304 32.4736 15.9089C33.3582 15.6126 33.3198 13.7376 33.0464 11.8877C33.7385 13.6249 34.6465 15.2659 35.5603 15.0781C35.9349 15.0011 36.1268 14.8897 36.3795 14.6027C36.9872 13.9123 36.0489 12.3454 34.9061 10.8997C36.3543 12.0393 37.9233 12.9741 38.6123 12.365C38.8988 12.1117 39.0098 11.9195 39.0859 11.5447C39.2704 10.6367 37.6512 9.73852 35.9257 9.05201C37.7632 9.32029 39.6147 9.35216 39.9089 8.47357C40.0304 8.11095 40.0304 7.88905 39.9089 7.52643C39.6147 6.64784 37.7632 6.67971 35.9257 6.94799C37.6511 6.26148 39.2704 5.36326 39.0859 4.45526C39.0098 4.0805 38.8988 3.88834 38.6123 3.63504C37.9233 3.02588 36.3542 3.96068 34.9061 5.10032C36.0489 3.65467 36.9871 2.08767 36.3795 1.39732C36.1268 1.11027 35.9349 0.998887 35.5603 0.921906C34.6465 0.734108 33.7385 2.37503 33.0464 4.11219C33.3198 2.26233 33.3582 0.387358 32.4736 0.0910843Z" fill="#EC8899"/>
<defs>
<clipPath id="clip0_677_19889">
<rect width="32" height="32" fill="white" transform="translate(4 4)"/>
</clipPath>
</defs>
</svg>
