<svg width="40" height="40" viewBox="0 0 40 40" fill="none" xmlns="http://www.w3.org/2000/svg">
<path d="M23.4285 5.14282H16.5714C15.309 5.14282 14.2856 6.16617 14.2856 7.42854V8.57139C14.2856 9.83375 15.309 10.8571 16.5714 10.8571H23.4285C24.6909 10.8571 25.7142 9.83375 25.7142 8.57139V7.42854C25.7142 6.16617 24.6909 5.14282 23.4285 5.14282Z" stroke="#8A8A8A" stroke-width="2" stroke-linecap="round" stroke-linejoin="round"/>
<path d="M26.2857 7.42859H29.7143C30.3205 7.42859 30.9019 7.66941 31.3305 8.09805C31.7591 8.52671 32 9.10809 32 9.7143V32.5714C32 33.1776 31.7591 33.7591 31.3305 34.1877C30.9019 34.6162 30.3205 34.8572 29.7143 34.8572H10.2857C9.6795 34.8572 9.09813 34.6162 8.66946 34.1877C8.24082 33.7591 8 33.1776 8 32.5714V9.7143C8 9.10809 8.24082 8.52671 8.66946 8.09805C9.09813 7.66941 9.6795 7.42859 10.2857 7.42859H13.7143" stroke="#8A8A8A" stroke-width="2" stroke-linecap="round" stroke-linejoin="round"/>
</svg>
