<svg width="24" height="24" viewBox="0 0 24 24" fill="none" xmlns="http://www.w3.org/2000/svg">
<path d="M23.1431 8.57157C23.1431 8.1169 22.9625 7.68088 22.641 7.35938C22.3196 7.0379 21.8835 6.85728 21.4289 6.85728L18.0003 6.85728L15.4289 3.42871L8.57171 3.42871L6.00028 6.85728L2.57171 6.85728C2.11704 6.85728 1.68102 7.0379 1.35952 7.35938C1.03803 7.68088 0.857422 8.1169 0.857422 8.57157L0.857422 18.8573C0.857422 19.3119 1.03803 19.748 1.35952 20.0695C1.68102 20.3909 2.11704 20.5716 2.57171 20.5716L21.4289 20.5716C21.8835 20.5716 22.3196 20.3909 22.641 20.0695C22.9625 19.748 23.1431 19.3119 23.1431 18.8573L23.1431 8.57157Z" stroke="white" stroke-width="1.5" stroke-linecap="round" stroke-linejoin="round"/>
<path d="M11.9997 16.7143C14.13 16.7143 15.8569 14.9874 15.8569 12.8571C15.8569 10.7269 14.13 9 11.9997 9C9.86948 9 8.14258 10.7269 8.14258 12.8571C8.14258 14.9874 9.86948 16.7143 11.9997 16.7143Z" stroke="white" stroke-width="1.5" stroke-linecap="round" stroke-linejoin="round"/>
</svg>
