<svg width="16" height="16" viewBox="0 0 16 16" fill="none" xmlns="http://www.w3.org/2000/svg">
<g clip-path="url(#clip0_1994_1192)">
<path d="M8 15C11.866 15 15 11.866 15 8C15 4.13401 11.866 1 8 1C4.13401 1 1 4.13401 1 8C1 11.866 4.13401 15 8 15Z" stroke="#8A8A8A" stroke-width="1.5" stroke-linecap="round" stroke-linejoin="round"/>
<path d="M6.38477 11.231H9.61553" stroke="#8A8A8A" stroke-width="1.5" stroke-linecap="round" stroke-linejoin="round"/>
<path d="M7.99977 11.2307V7.46143H6.92285" stroke="#8A8A8A" stroke-width="1.5" stroke-linecap="round" stroke-linejoin="round"/>
<path d="M8.00068 5.03846C7.85199 5.03846 7.73145 4.91792 7.73145 4.76923C7.73145 4.62054 7.85199 4.5 8.00068 4.5" stroke="#8A8A8A" stroke-width="1.5" stroke-linecap="round" stroke-linejoin="round"/>
<path d="M8.00098 5.03846C8.14967 5.03846 8.27021 4.91792 8.27021 4.76923C8.27021 4.62054 8.14967 4.5 8.00098 4.5" stroke="#8A8A8A" stroke-width="1.5" stroke-linecap="round" stroke-linejoin="round"/>
</g>
<defs>
<clipPath id="clip0_1994_1192">
<rect width="16" height="16" fill="white"/>
</clipPath>
</defs>
</svg>
