<svg width="32" height="33" viewBox="0 0 32 33" fill="none" xmlns="http://www.w3.org/2000/svg">
<circle cx="16" cy="16.5" r="15" fill="#BDFFC1"/>
<path d="M12.3237 11.2005C12.5326 12.2011 12.6145 12.3786 11.4542 14.1052C10.294 15.8318 8.42743 15.8288 7.28716 15.0207C6.14689 14.2126 6.12829 12.6159 6.62369 11.8172C7.24293 10.8189 8.66088 10.4408 10.2373 11.1907C11.4985 11.7906 12.4434 13.5387 12.5263 16.1247C12.6091 18.7107 11.2499 21.0586 8.71124 20.9016C6.1726 20.7447 5.42782 18.5306 6.02492 17.445" stroke="#29762E" stroke-width="1.5" stroke-linecap="round"/>
<path d="M25.3192 11.1949C25.5271 12.1957 25.6089 12.3733 24.4469 14.0988C23.285 15.8243 21.4185 15.8195 20.279 15.0103C19.1395 14.2011 19.1224 12.6044 19.6186 11.8062C20.2388 10.8085 21.6571 10.4317 23.2329 11.1831C24.4935 11.7843 25.4367 13.5333 25.517 16.1194C25.5974 18.7054 24.2359 21.052 21.6974 20.8926C19.1589 20.7332 18.4163 18.5184 19.0144 17.4334" stroke="#29762E" stroke-width="1.5" stroke-linecap="round"/>
<path d="M14.125 22.7439C14.7701 23.5936 16.8082 24.063 18.2518 22.3366" stroke="#29762E" stroke-width="1.5" stroke-linecap="round"/>
<path d="M28.6695 25.587C21.1929 35.8695 1.05945 32.8562 1 16.5503C1.07065 -2.0782 27.3388 -3.35368 31 12.7191" stroke="#29762E" stroke-width="2" stroke-miterlimit="10" stroke-linecap="round"/>
</svg>
