<svg width="26" height="27" viewBox="0 0 26 27" fill="none" xmlns="http://www.w3.org/2000/svg">
<circle cx="13" cy="13" r="12" fill="#BDFFC1"/>
<path d="M10.059 8.7604C10.2261 9.56085 10.2916 9.70288 9.36339 11.0842C8.43516 12.4654 6.94194 12.4631 6.02973 11.8166C5.11752 11.1701 5.10263 9.89272 5.49895 9.2538C5.99435 8.45514 7.1287 8.15261 8.38988 8.75255C9.39882 9.2325 10.1547 10.631 10.221 12.6998C10.2873 14.7686 9.19991 16.6469 7.169 16.5213C5.13808 16.3957 4.54225 14.6245 5.01994 13.756" stroke="#29762E" stroke-width="1.5" stroke-linecap="round"/>
<path d="M20.4554 8.75596C20.6217 9.55656 20.6871 9.69866 19.7576 11.079C18.828 12.4594 17.3348 12.4556 16.4232 11.8083C15.5116 11.1609 15.4979 9.88351 15.8949 9.24496C16.391 8.44678 17.5257 8.14535 18.7863 8.7465C19.7948 9.22742 20.5493 10.6266 20.6136 12.6955C20.6779 14.7644 19.5887 16.6416 17.5579 16.5141C15.5271 16.3866 14.933 14.6147 15.4115 13.7467" stroke="#29762E" stroke-width="1.5" stroke-linecap="round"/>
<path d="M11.5 17.9951C12.0161 18.6749 13.6465 19.0504 14.8014 17.6693" stroke="#29762E" stroke-width="1.5" stroke-linecap="round"/>
<path d="M23.1356 20.2696C17.1543 28.4956 1.04756 26.085 1 13.0403C1.05652 -1.86256 22.071 -2.88295 25 9.97528" stroke="#29762E" stroke-width="2" stroke-miterlimit="10" stroke-linecap="round"/>
</svg>
