<svg width="37" height="37" viewBox="0 0 37 37" fill="none" xmlns="http://www.w3.org/2000/svg">
<circle cx="18.8" cy="18.801" r="16.8" fill="#FFF189"/>
<path d="M14.6825 22.6433C14.9164 21.5227 15.0082 21.3239 13.7087 19.3901C12.4091 17.4563 10.3186 17.4596 9.04154 18.3647C7.76444 19.2697 7.7436 21.0581 8.29844 21.9526C8.992 23.0707 10.5801 23.4943 12.3457 22.6543C13.7583 21.9824 14.8165 20.0245 14.9093 17.1282C15.0021 14.2319 13.4798 11.6023 10.6365 11.7781C7.79323 11.9539 6.95907 14.4336 7.62782 15.6495" stroke="#56530F" stroke-width="2.52" stroke-linecap="round"/>
<path d="M29.2374 22.6493C29.4703 21.5284 29.5619 21.3295 28.2605 19.397C26.9591 17.4644 24.8686 17.4698 23.5924 18.376C22.3162 19.2823 22.297 21.0707 22.8527 21.9647C23.5474 23.0821 25.1359 23.5041 26.9007 22.6625C28.3126 21.9892 29.369 20.0303 29.459 17.1339C29.549 14.2375 28.0241 11.6094 25.181 11.7879C22.3379 11.9664 21.5061 14.447 22.1761 15.6622" stroke="#56530F" stroke-width="2.52" stroke-linecap="round"/>
<path d="M14.599 25.8008C16.699 28.6008 20.899 27.9008 22.299 25.8008" stroke="#56530F" stroke-width="2.52" stroke-linecap="round"/>
<path d="M32.4364 28.4393C24.2121 39.75 2.06539 36.4354 2 18.499C2.07771 -1.99242 30.9727 -3.39545 35 14.2846" stroke="#56530F" stroke-width="3.36" stroke-miterlimit="10" stroke-linecap="round"/>
</svg>
