<svg width="37" height="37" viewBox="0 0 37 37" fill="none" xmlns="http://www.w3.org/2000/svg">
<circle cx="18.8" cy="18.8" r="16.8" fill="#BDFFC1"/>
<path d="M14.6825 12.865C14.9164 13.9856 15.0082 14.1844 13.7087 16.1182C12.4091 18.052 10.3186 18.0487 9.04154 17.1436C7.76444 16.2386 7.7436 14.4502 8.29844 13.5557C8.992 12.4376 10.5801 12.014 12.3457 12.854C13.7583 13.5259 14.8165 15.4838 14.9093 18.3801C15.0021 21.2764 13.4798 23.906 10.6365 23.7302C7.79323 23.5544 6.95907 21.0747 7.62782 19.8588" stroke="#29762E" stroke-width="2.52" stroke-linecap="round"/>
<path d="M29.2374 12.859C29.4703 13.9799 29.5619 14.1788 28.2605 16.1113C26.9591 18.0439 24.8686 18.0385 23.5924 17.1323C22.3162 16.226 22.297 14.4376 22.8527 13.5436C23.5474 12.4262 25.1359 12.0042 26.9007 12.8458C28.3126 13.5191 29.369 15.478 29.459 18.3744C29.549 21.2708 28.0241 23.8989 25.181 23.7204C22.3379 23.5419 21.5061 21.0613 22.1761 19.8461" stroke="#29762E" stroke-width="2.52" stroke-linecap="round"/>
<path d="M16.7 25.793C17.4225 26.7446 19.7051 27.2704 21.322 25.3368" stroke="#29762E" stroke-width="2.52" stroke-linecap="round"/>
<path d="M32.4364 28.4499C24.2121 39.7413 2.06535 36.4324 1.99995 18.5265C2.07767 -1.92994 30.9726 -3.33058 35 14.3193" stroke="#29762E" stroke-width="3.36" stroke-miterlimit="10" stroke-linecap="round"/>
</svg>
