<svg width="37" height="37" viewBox="0 0 37 37" fill="none" xmlns="http://www.w3.org/2000/svg">
<circle cx="18.7999" cy="18.4577" r="16.8" fill="#FFAD89"/>
<path d="M14.6824 12.5232C14.9164 13.6438 15.0081 13.8426 13.7086 15.7764C12.4091 17.7102 10.3186 17.7069 9.04149 16.8018C7.76439 15.8968 7.74355 14.1084 8.2984 13.2139C8.99195 12.0958 10.58 11.6722 12.3457 12.5122C13.7582 13.1841 14.8165 15.142 14.9093 18.0383C15.0021 20.9346 13.4797 23.5642 10.6365 23.3884C7.79319 23.2126 6.95902 20.7329 7.62778 19.517" stroke="#68290E" stroke-width="2.52" stroke-linecap="round"/>
<path d="M29.2374 12.5172C29.4702 13.6381 29.5618 13.837 28.2604 15.7695C26.9591 17.7021 24.8686 17.6967 23.5923 16.7905C22.3161 15.8842 22.297 14.0958 22.8527 13.2018C23.5473 12.0844 25.1358 11.6624 26.9007 12.504C28.3125 13.1773 29.3689 15.1362 29.4589 18.0326C29.5489 20.929 28.0241 23.5571 25.181 23.3786C22.3379 23.2001 21.5061 20.7195 22.176 19.5043" stroke="#68290E" stroke-width="2.52" stroke-linecap="round"/>
<path d="M16.7 25.2964C17.4224 24.3447 19.7051 23.819 21.3219 25.7526" stroke="#68290E" stroke-width="2.52" stroke-linecap="round"/>
<path d="M32.4364 28.1081C24.2121 39.3995 2.06535 36.0906 1.99995 18.1847C2.07767 -2.27174 30.9726 -3.67237 35 13.9775" stroke="#68290E" stroke-width="3.36" stroke-miterlimit="10" stroke-linecap="round"/>
</svg>
