<svg width="24" height="24" viewBox="0 0 24 24" fill="none" xmlns="http://www.w3.org/2000/svg">
<g clip-path="url(#clip0_1403_19109)">
<path d="M8.57122 20.9828L0.856934 23.1428L3.01693 15.4286L17.1426 1.37144C17.3022 1.20816 17.493 1.07842 17.7034 0.989851C17.9139 0.901278 18.14 0.855652 18.3684 0.855652C18.5967 0.855652 18.8228 0.901278 19.0333 0.989851C19.2437 1.07842 19.4345 1.20816 19.5941 1.37144L22.6284 4.42286C22.789 4.58222 22.9165 4.77184 23.0036 4.98073C23.0907 5.18963 23.1354 5.4137 23.1354 5.64001C23.1354 5.86631 23.0907 6.09038 23.0036 6.29929C22.9165 6.50819 22.789 6.69779 22.6284 6.85715L8.57122 20.9828Z" stroke="#111111" stroke-width="1.5" stroke-linecap="round" stroke-linejoin="round"/>
</g>
<defs>
<clipPath id="clip0_1403_19109">
<rect width="24" height="24" fill="white"/>
</clipPath>
</defs>
</svg>
