<svg width="24" height="24" viewBox="0 0 24 24" fill="none" xmlns="http://www.w3.org/2000/svg">
<path d="M20.2636 22.8571H4.34052C3.36341 22.8571 2.57129 22.065 2.57129 21.0879V20.2032C2.57129 19.2261 3.36341 18.434 4.34052 18.434H20.2636C21.2407 18.434 22.0328 19.2261 22.0328 20.2032V21.0879C22.0328 22.065 21.2407 22.8571 20.2636 22.8571Z" stroke="#111111" stroke-width="1.5" stroke-linecap="round" stroke-linejoin="round"/>
<path d="M5.2251 18.1196V15.0109C5.2251 11.1025 8.39354 7.93402 12.302 7.93402C16.2105 7.93402 19.3789 11.1025 19.3789 15.0109L19.5 18.1196" stroke="#111111" stroke-width="1.5" stroke-linecap="round" stroke-linejoin="round"/>
<path d="M12.3022 0.857117V4.39557" stroke="#111111" stroke-width="1.5" stroke-linecap="round" stroke-linejoin="round"/>
<path d="M2.57129 3.51093L5.07335 6.01299" stroke="#111111" stroke-width="1.5" stroke-linecap="round" stroke-linejoin="round"/>
<path d="M22.0328 3.51093L19.5308 6.01299" stroke="#111111" stroke-width="1.5" stroke-linecap="round" stroke-linejoin="round"/>
<path d="M12.3022 18.2831V15.0109" stroke="#111111" stroke-width="1.5" stroke-linecap="round" stroke-linejoin="round"/>
</svg>
