<svg width="24" height="24" viewBox="0 0 24 24" fill="none" xmlns="http://www.w3.org/2000/svg">
<g clip-path="url(#clip0_1409_19029)">
<path d="M18.0149 13.3857C17.5721 10.402 19.6753 8.94565 20.7822 8.59045C18.5683 5.60682 13.9561 6.63686 11.9267 7.52484C9.71283 6.24612 7.68348 6.28164 6.94554 6.45924C-1.02453 7.73796 3.07107 20.312 6.39189 22.4433C8.34153 23.6945 11.0044 23.1537 12.4803 22.4433C17.7937 25.427 20.598 20.4897 21.3359 17.6481C20.4134 17.4705 18.4576 16.3694 18.0149 13.3857Z" fill="#111111" stroke="#111111"/>
<path d="M11.479 5.36914C10.8862 4.25803 12.072 0.369141 16.2234 0.369141C16.8166 2.03581 15.0375 5.36914 11.479 5.36914Z" fill="#111111"/>
</g>
<defs>
<clipPath id="clip0_1409_19029">
<rect width="21" height="24" fill="white" transform="translate(1)"/>
</clipPath>
</defs>
</svg>
