<svg width="79" height="24" viewBox="0 0 79 24" fill="none" xmlns="http://www.w3.org/2000/svg">
<path d="M23.6732 15.5V14.124H18.0892V11.628H27.0972C27.2146 11.148 27.2999 10.7107 27.3532 10.316C27.4172 9.91065 27.4599 9.53198 27.4812 9.17998H19.8172V6.68398H30.6012L30.5852 7.81998C30.5852 8.06532 30.5746 8.33732 30.5532 8.63598C30.5426 8.92398 30.5159 9.23332 30.4732 9.56398C30.4412 9.89465 30.3932 10.236 30.3292 10.588C30.2759 10.94 30.2012 11.2867 30.1052 11.628H32.0092V14.124H26.7132V15.5H23.6732ZM18.5692 18.844C20.2439 18.5987 21.5132 18.236 22.3772 17.756C23.2519 17.2653 23.6892 16.6947 23.6892 16.044V15.868H26.7132V16.412C26.7132 16.8067 26.7666 17.1427 26.8732 17.42C26.9906 17.6867 27.1399 17.9053 27.3212 18.076C27.5026 18.236 27.7052 18.3587 27.9292 18.444C28.1639 18.5187 28.3986 18.5667 28.6332 18.588C28.9319 18.6093 29.2572 18.6147 29.6092 18.604C29.9719 18.5827 30.2919 18.4813 30.5692 18.3L31.2092 18.684C31.2626 19.1213 31.2039 19.516 31.0332 19.868C30.8732 20.2307 30.6279 20.5293 30.2972 20.764C29.9666 21.0093 29.5719 21.1853 29.1132 21.292C28.6652 21.3987 28.1852 21.4093 27.6732 21.324C26.9692 21.2173 26.4092 21.004 25.9932 20.684C25.5879 20.3747 25.3159 19.916 25.1772 19.308C24.7826 19.6387 24.3399 19.9267 23.8492 20.172C23.3692 20.428 22.8786 20.6413 22.3772 20.812C21.8759 20.9933 21.3799 21.1373 20.8892 21.244C20.3986 21.3507 19.9559 21.4253 19.5612 21.468L18.5692 18.844ZM38.8763 15.5V14.124H33.2923V11.628H42.3003C42.4177 11.148 42.503 10.7107 42.5563 10.316C42.6203 9.91065 42.663 9.53198 42.6843 9.17998H35.0203V6.68398H45.8043L45.7883 7.81998C45.7883 8.06532 45.7777 8.33732 45.7563 8.63598C45.7457 8.92398 45.719 9.23332 45.6763 9.56398C45.6443 9.89465 45.5963 10.236 45.5323 10.588C45.479 10.94 45.4043 11.2867 45.3083 11.628H47.2123V14.124H41.9163V15.5H38.8763ZM33.7723 18.844C35.447 18.5987 36.7163 18.236 37.5803 17.756C38.455 17.2653 38.8923 16.6947 38.8923 16.044V15.868H41.9163V16.412C41.9163 16.8067 41.9697 17.1427 42.0763 17.42C42.1937 17.6867 42.343 17.9053 42.5243 18.076C42.7057 18.236 42.9083 18.3587 43.1323 18.444C43.367 18.5187 43.6017 18.5667 43.8363 18.588C44.135 18.6093 44.4603 18.6147 44.8123 18.604C45.175 18.5827 45.495 18.4813 45.7723 18.3L46.4123 18.684C46.4657 19.1213 46.407 19.516 46.2363 19.868C46.0763 20.2307 45.831 20.5293 45.5003 20.764C45.1697 21.0093 44.775 21.1853 44.3163 21.292C43.8683 21.3987 43.3883 21.4093 42.8763 21.324C42.1723 21.2173 41.6123 21.004 41.1963 20.684C40.791 20.3747 40.519 19.916 40.3803 19.308C39.9857 19.6387 39.543 19.9267 39.0523 20.172C38.5723 20.428 38.0817 20.6413 37.5803 20.812C37.079 20.9933 36.583 21.1373 36.0923 21.244C35.6017 21.3507 35.159 21.4253 34.7643 21.468L33.7723 18.844ZM62.9595 14.172H61.2475V20.892H58.2075V6.49198H61.2475V11.372H62.9595V14.172ZM47.8235 10.3V7.64398C48.2181 7.66532 48.6021 7.66532 48.9755 7.64398C49.3488 7.62265 49.7168 7.59598 50.0795 7.56398C50.5381 7.52132 50.9808 7.46798 51.4075 7.40398C51.8448 7.32932 52.2661 7.26532 52.6715 7.21198C53.0768 7.15865 53.4608 7.11598 53.8235 7.08398C54.1861 7.05198 54.5221 7.04665 54.8315 7.06798C55.2901 7.09998 55.6688 7.20665 55.9675 7.38798C56.2661 7.55865 56.5008 7.78798 56.6715 8.07598C56.8528 8.36398 56.9808 8.70532 57.0555 9.09998C57.1301 9.49465 57.1781 9.92665 57.1995 10.396C57.2208 10.812 57.2208 11.2707 57.1995 11.772C57.1888 12.2733 57.1621 12.7853 57.1195 13.308C57.0875 13.8307 57.0448 14.3533 56.9915 14.876C56.9381 15.388 56.8848 15.8733 56.8315 16.332C56.7781 16.7907 56.7301 17.2067 56.6875 17.58C56.6448 17.9427 56.6128 18.236 56.5915 18.46H48.6235V10.3H47.8235ZM51.6155 15.82H53.9355C53.9675 15.6813 54.0048 15.4307 54.0475 15.068C54.1008 14.7053 54.1435 14.2947 54.1755 13.836C54.2075 13.3667 54.2288 12.8867 54.2395 12.396C54.2608 11.8947 54.2555 11.4467 54.2235 11.052C54.1915 10.668 54.0901 10.3693 53.9195 10.156C53.7488 9.93198 53.4661 9.80932 53.0715 9.78798C52.8475 9.76665 52.6235 9.78265 52.3995 9.83598C52.1861 9.87865 51.9248 9.93198 51.6155 9.99598V15.82ZM74.3706 15.836V6.49198H77.1226V15.836H74.3706ZM63.4426 13.756C63.8906 13.564 64.3226 13.356 64.7386 13.132C65.1653 12.8973 65.5653 12.6467 65.9386 12.38C65.5439 12.4013 65.1653 12.412 64.8026 12.412C64.4399 12.412 64.1199 12.4067 63.8426 12.396V10.332C64.0773 10.3427 64.3546 10.348 64.6746 10.348C65.0053 10.348 65.3466 10.348 65.6986 10.348C66.0506 10.348 66.4079 10.348 66.7706 10.348C67.1333 10.3373 67.4799 10.3213 67.8106 10.3C67.8853 10.1293 67.9386 9.93198 67.9706 9.70798H64.1946V7.51598H70.9306L70.8826 8.20398C70.8399 8.92932 70.7013 9.63865 70.4666 10.332H71.2986V6.65198H74.0186V14.94H71.2986V12.812H69.1386C68.6053 13.5053 67.9759 14.124 67.2506 14.668C66.5253 15.2013 65.7146 15.6547 64.8186 16.028L63.4426 13.756ZM65.0266 18.844C65.9759 18.684 66.7813 18.492 67.4426 18.268C68.1146 18.0333 68.6586 17.7827 69.0746 17.516C69.4906 17.2387 69.7893 16.9453 69.9706 16.636C70.1626 16.316 70.2586 15.996 70.2586 15.676V15.5H73.2826V15.9C73.2826 16.38 73.3413 16.78 73.4586 17.1C73.5866 17.4093 73.7466 17.6653 73.9386 17.868C74.1306 18.06 74.3439 18.204 74.5786 18.3C74.8239 18.3853 75.0639 18.4387 75.2986 18.46C75.5973 18.4813 75.9226 18.4867 76.2746 18.476C76.6373 18.4547 76.9573 18.3533 77.2346 18.172L77.8746 18.556C77.9279 18.9933 77.8693 19.388 77.6986 19.74C77.5386 20.1027 77.2933 20.4013 76.9626 20.636C76.6319 20.8813 76.2373 21.0573 75.7786 21.164C75.3306 21.2707 74.8506 21.2813 74.3386 21.196C72.9733 20.9933 72.1253 20.2733 71.7946 19.036C71.3893 19.4093 70.9359 19.7347 70.4346 20.012C69.9439 20.3 69.4373 20.54 68.9146 20.732C68.3919 20.9347 67.8799 21.0947 67.3786 21.212C66.8773 21.34 66.4239 21.4253 66.0186 21.468L65.0266 18.844Z" fill="#111111"/>
<rect x="12.4004" y="7.17578" width="3.325" height="3.325" rx="1.6625" fill="#64D8C3"/>
<rect x="4.80078" y="7.17578" width="3.325" height="3.325" rx="1.6625" fill="#64D8C3"/>
<path d="M18.524 16.2226C13.7888 22.7349 1.03765 20.8265 1 10.4994C1.04474 -1.29866 17.6812 -2.10647 20 8.07296" stroke="#111111" stroke-width="2" stroke-miterlimit="10" stroke-linecap="round"/>
<path d="M8.28255 7.36371C8.41201 7.9839 8.4628 8.09395 7.7436 9.16417C7.0244 10.2344 5.86744 10.2326 5.16065 9.73167C4.45386 9.23078 4.44233 8.24104 4.7494 7.74599C5.13323 7.12719 6.01214 6.89278 6.98932 7.35762C7.77105 7.72949 8.35674 8.81305 8.40809 10.416C8.45945 12.0189 7.61694 13.4742 6.04336 13.3769C4.46979 13.2796 4.00814 11.9073 4.37825 11.2344" stroke="#111111" stroke-width="1.5" stroke-linecap="round"/>
<path d="M16.3387 7.36348C16.4676 7.9838 16.5182 8.0939 15.798 9.16343C15.0778 10.233 13.9208 10.23 13.2145 9.72844C12.5082 9.22687 12.4976 8.23712 12.8052 7.74237C13.1896 7.12393 14.0687 6.89038 15.0455 7.35615C15.8268 7.72877 16.4115 8.8129 16.4613 10.4159C16.5111 12.0188 15.6672 13.4733 14.0937 13.3745C12.5202 13.2757 12.0599 11.9029 12.4307 11.2304" stroke="#111111" stroke-width="1.5" stroke-linecap="round"/>
<path d="M9.15234 14.8164C9.56801 15.3639 10.8813 15.6664 11.8116 14.554" stroke="#111111" stroke-width="1.5" stroke-linecap="round"/>
</svg>
