<svg width="161" height="49" viewBox="0 0 161 49" fill="none" xmlns="http://www.w3.org/2000/svg">
<path d="M50.8972 32.916V30.164H39.7292V25.172H57.7452C57.9799 24.212 58.1506 23.3373 58.2572 22.548C58.3852 21.7373 58.4706 20.98 58.5132 20.276H43.1852V15.284H64.7532L64.7212 17.556C64.7212 18.0466 64.6999 18.5906 64.6572 19.188C64.6359 19.764 64.5826 20.3826 64.4972 21.044C64.4332 21.7053 64.3372 22.388 64.2092 23.092C64.1026 23.796 63.9532 24.4893 63.7612 25.172H67.5692V30.164H56.9772V32.916H50.8972ZM40.6892 39.604C44.0386 39.1133 46.5772 38.388 48.3052 37.428C50.0546 36.4467 50.9292 35.3053 50.9292 34.004V33.652H56.9772V34.74C56.9772 35.5293 57.0839 36.2013 57.2972 36.756C57.5319 37.2893 57.8306 37.7267 58.1932 38.068C58.5559 38.388 58.9612 38.6333 59.4092 38.804C59.8786 38.9533 60.3479 39.0493 60.8172 39.092C61.4146 39.1347 62.0652 39.1453 62.7692 39.124C63.4946 39.0813 64.1346 38.8787 64.6892 38.516L65.9692 39.284C66.0759 40.1587 65.9586 40.948 65.6172 41.652C65.2972 42.3773 64.8066 42.9747 64.1452 43.444C63.4839 43.9347 62.6946 44.2867 61.7772 44.5C60.8812 44.7133 59.9212 44.7347 58.8972 44.564C57.4892 44.3507 56.3692 43.924 55.5372 43.284C54.7266 42.6653 54.1826 41.748 53.9052 40.532C53.1159 41.1933 52.2306 41.7693 51.2492 42.26C50.2892 42.772 49.3079 43.1987 48.3052 43.54C47.3026 43.9027 46.3106 44.1907 45.3292 44.404C44.3479 44.6173 43.4626 44.7667 42.6732 44.852L40.6892 39.604ZM81.3035 32.916V30.164H70.1355V25.172H88.1515C88.3861 24.212 88.5568 23.3373 88.6635 22.548C88.7915 21.7373 88.8768 20.98 88.9195 20.276H73.5915V15.284H95.1595L95.1275 17.556C95.1275 18.0466 95.1061 18.5906 95.0635 19.188C95.0421 19.764 94.9888 20.3826 94.9035 21.044C94.8395 21.7053 94.7435 22.388 94.6155 23.092C94.5088 23.796 94.3595 24.4893 94.1675 25.172H97.9755V30.164H87.3835V32.916H81.3035ZM71.0955 39.604C74.4448 39.1133 76.9835 38.388 78.7115 37.428C80.4608 36.4467 81.3355 35.3053 81.3355 34.004V33.652H87.3835V34.74C87.3835 35.5293 87.4901 36.2013 87.7035 36.756C87.9381 37.2893 88.2368 37.7267 88.5995 38.068C88.9621 38.388 89.3675 38.6333 89.8155 38.804C90.2848 38.9533 90.7541 39.0493 91.2235 39.092C91.8208 39.1347 92.4715 39.1453 93.1755 39.124C93.9008 39.0813 94.5408 38.8787 95.0955 38.516L96.3755 39.284C96.4821 40.1587 96.3648 40.948 96.0235 41.652C95.7035 42.3773 95.2128 42.9747 94.5515 43.444C93.8901 43.9347 93.1008 44.2867 92.1835 44.5C91.2875 44.7133 90.3275 44.7347 89.3035 44.564C87.8955 44.3507 86.7755 43.924 85.9435 43.284C85.1328 42.6653 84.5888 41.748 84.3115 40.532C83.5221 41.1933 82.6368 41.7693 81.6555 42.26C80.6955 42.772 79.7141 43.1987 78.7115 43.54C77.7088 43.9027 76.7168 44.1907 75.7355 44.404C74.7541 44.6173 73.8688 44.7667 73.0795 44.852L71.0955 39.604ZM129.47 30.26H126.046V43.7H119.966V14.9H126.046V24.66H129.47V30.26ZM99.1977 22.516V17.204C99.9871 17.2466 100.755 17.2466 101.502 17.204C102.248 17.1613 102.984 17.108 103.71 17.044C104.627 16.9586 105.512 16.852 106.366 16.724C107.24 16.5746 108.083 16.4466 108.894 16.34C109.704 16.2333 110.472 16.148 111.198 16.084C111.923 16.02 112.595 16.0093 113.214 16.052C114.131 16.116 114.888 16.3293 115.486 16.692C116.083 17.0333 116.552 17.492 116.894 18.068C117.256 18.644 117.512 19.3267 117.662 20.116C117.811 20.9053 117.907 21.7693 117.95 22.708C117.992 23.54 117.992 24.4573 117.95 25.46C117.928 26.4627 117.875 27.4867 117.79 28.532C117.726 29.5773 117.64 30.6227 117.534 31.668C117.427 32.692 117.32 33.6627 117.214 34.58C117.107 35.4973 117.011 36.3293 116.926 37.076C116.84 37.8013 116.776 38.388 116.734 38.836H100.798V22.516H99.1977ZM106.782 33.556H111.422C111.486 33.2787 111.56 32.7773 111.646 32.052C111.752 31.3267 111.838 30.5053 111.902 29.588C111.966 28.6493 112.008 27.6893 112.03 26.708C112.072 25.7053 112.062 24.8093 111.998 24.02C111.934 23.252 111.731 22.6546 111.39 22.228C111.048 21.78 110.483 21.5346 109.694 21.492C109.246 21.4493 108.798 21.4813 108.35 21.588C107.923 21.6733 107.4 21.78 106.782 21.908V33.556ZM152.292 33.588V14.9H157.796V33.588H152.292ZM130.436 29.428C131.332 29.044 132.196 28.628 133.028 28.18C133.881 27.7107 134.681 27.2093 135.428 26.676C134.639 26.7187 133.881 26.74 133.156 26.74C132.431 26.74 131.791 26.7293 131.236 26.708V22.58C131.705 22.6013 132.26 22.612 132.9 22.612C133.561 22.612 134.244 22.612 134.948 22.612C135.652 22.612 136.367 22.612 137.092 22.612C137.817 22.5906 138.511 22.5586 139.172 22.516C139.321 22.1747 139.428 21.78 139.492 21.332H131.94V16.948H145.412L145.316 18.324C145.231 19.7746 144.953 21.1933 144.484 22.58H146.148V15.22H151.588V31.796H146.148V27.54H141.828C140.761 28.9267 139.503 30.164 138.052 31.252C136.601 32.3187 134.98 33.2253 133.188 33.972L130.436 29.428ZM133.604 39.604C135.503 39.284 137.113 38.9 138.436 38.452C139.78 37.9827 140.868 37.4813 141.7 36.948C142.532 36.3933 143.129 35.8067 143.492 35.188C143.876 34.548 144.068 33.908 144.068 33.268V32.916H150.116V33.716C150.116 34.676 150.233 35.476 150.468 36.116C150.724 36.7347 151.044 37.2467 151.428 37.652C151.812 38.036 152.239 38.324 152.708 38.516C153.199 38.6867 153.679 38.7933 154.148 38.836C154.745 38.8787 155.396 38.8893 156.1 38.868C156.825 38.8253 157.465 38.6227 158.02 38.26L159.3 39.028C159.407 39.9027 159.289 40.692 158.948 41.396C158.628 42.1213 158.137 42.7187 157.476 43.188C156.815 43.6787 156.025 44.0307 155.108 44.244C154.212 44.4573 153.252 44.4787 152.228 44.308C149.497 43.9027 147.801 42.4627 147.14 39.988C146.329 40.7347 145.423 41.3853 144.42 41.94C143.439 42.516 142.425 42.996 141.38 43.38C140.335 43.7853 139.311 44.1053 138.308 44.34C137.305 44.596 136.399 44.7667 135.588 44.852L133.604 39.604Z" fill="#111111"/>
<rect x="27" y="16" width="7" height="7" rx="3.5" fill="#64D8C3"/>
<rect x="11" y="16" width="7" height="7" rx="3.5" fill="#64D8C3"/>
<path d="M18.3301 16.3974C18.6026 17.7031 18.7095 17.9348 17.1954 20.1879C15.6813 22.441 13.2456 22.4371 11.7576 21.3826C10.2696 20.3281 10.2454 18.2444 10.8918 17.2022C11.6999 15.8995 13.5502 15.406 15.6074 16.3846C17.2532 17.1675 18.4862 19.4487 18.5943 22.8233C18.7025 26.1978 16.9287 29.2616 13.616 29.0568C10.3032 28.852 9.33128 25.9628 10.1105 24.5462" stroke="#111111" stroke-width="3" stroke-linecap="round"/>
<path d="M35.2901 16.3995C35.5614 17.7055 35.6681 17.9372 34.1519 20.1889C32.6356 22.4405 30.1999 22.4343 28.7129 21.3784C27.2259 20.3224 27.2037 18.2388 27.8511 17.1972C28.6605 15.8952 30.5113 15.4035 32.5675 16.3841C34.2125 17.1686 35.4434 19.4509 35.5482 22.8256C35.6531 26.2003 33.8765 29.2624 30.5639 29.0544C27.2513 28.8464 26.2822 25.9562 27.0627 24.5403" stroke="#111111" stroke-width="3" stroke-linecap="round"/>
<path d="M20.1641 32.0879C21.0392 33.2406 23.804 33.8774 25.7624 31.5354" stroke="#111111" stroke-width="3" stroke-linecap="round"/>
<path d="M39.8926 35.0476C29.9238 48.7576 3.07926 44.7399 3 22.9988C3.0942 -1.83929 38.1184 -3.53993 43 17.8904" stroke="#111111" stroke-width="5" stroke-miterlimit="10" stroke-linecap="round"/>
</svg>
